<svg width="14" height="12" viewBox="0 0 14 12" fill="none" xmlns="http://www.w3.org/2000/svg">
<path d="M0.375 7.5V6.375H5.625V7.5H0.375ZM0.375 4.5V3.375H8.625V4.5H0.375ZM0.375 1.5V0.375H8.625V1.5H0.375ZM6.83663 11.625V9.64331L10.9082 5.59031C11.0014 5.49706 11.1021 5.43144 11.2103 5.39344C11.3184 5.35556 11.4265 5.33663 11.5346 5.33663C11.6525 5.33663 11.7666 5.35869 11.8768 5.40281C11.9871 5.44706 12.0873 5.51344 12.1774 5.60194L12.8711 6.30281C12.9519 6.39619 13.0144 6.49719 13.0586 6.60581C13.1029 6.71444 13.125 6.82306 13.125 6.93169C13.125 7.04031 13.1048 7.15088 13.0644 7.26338C13.0241 7.37588 12.9596 7.47875 12.8711 7.572L8.81831 11.625H6.83663ZM7.73081 10.7308H8.44331L10.8778 8.2845L10.5332 7.92825L10.1841 7.5765L7.73081 10.0183V10.7308ZM10.5332 7.92825L10.1841 7.5765L10.8778 8.2845L10.5332 7.92825Z" fill="white"/>
</svg>
