<svg width="18" height="18" viewBox="0 0 18 18" fill="none" xmlns="http://www.w3.org/2000/svg">
<path d="M2.48083 1.875H3.86177C4.05752 1.875 4.22002 1.94 4.34927 2.07C4.47865 2.19988 4.54333 2.36087 4.54333 2.553V16.125C4.20296 16.0721 3.93034 15.9216 3.72546 15.6735C3.52071 15.4255 3.41833 15.1241 3.41833 14.7692V3H2.48083C2.32146 3 2.18784 2.94606 2.07996 2.83819C1.97221 2.73031 1.91833 2.59669 1.91833 2.43731C1.91833 2.27781 1.97221 2.14425 2.07996 2.03662C2.18784 1.92887 2.32146 1.875 2.48083 1.875ZM6.93752 16.125C6.56465 16.125 6.24546 15.9923 5.97996 15.7268C5.71446 15.4613 5.58171 15.1421 5.58171 14.7692V3.23081C5.58171 2.85794 5.71446 2.53875 5.97996 2.27325C6.24546 2.00775 6.56465 1.875 6.93752 1.875H13.2259C13.5988 1.875 13.918 2.00775 14.1835 2.27325C14.449 2.53875 14.5817 2.85794 14.5817 3.23081V14.7692C14.5817 15.1421 14.449 15.4613 14.1835 15.7268C13.918 15.9923 13.5988 16.125 13.2259 16.125H6.93752ZM6.70671 8.36981C6.91734 8.20344 7.14884 8.07937 7.40121 7.99762C7.65359 7.91587 7.92209 7.875 8.20671 7.875H11.9567C12.2413 7.875 12.5098 7.91587 12.7622 7.99762C13.0147 8.07937 13.2462 8.20344 13.4567 8.36981V3.23081C13.4567 3.16344 13.4351 3.10813 13.3918 3.06488C13.3486 3.02163 13.2933 3 13.2259 3H6.93752C6.87027 3 6.81496 3.02163 6.77158 3.06488C6.72833 3.10813 6.70671 3.16344 6.70671 3.23081V8.36981ZM10.0817 6.75C9.71734 6.75 9.40752 6.62238 9.15227 6.36713C8.8969 6.11175 8.76921 5.80188 8.76921 5.4375C8.76921 5.07313 8.8969 4.76325 9.15227 4.50787C9.40752 4.25262 9.71734 4.125 10.0817 4.125C10.4462 4.125 10.7561 4.25262 11.0113 4.50787C11.2666 4.76325 11.3942 5.07313 11.3942 5.4375C11.3942 5.80188 11.2666 6.11175 11.0113 6.36713C10.7561 6.62238 10.4462 6.75 10.0817 6.75ZM6.93752 15H13.2259C13.2933 15 13.3486 14.9784 13.3918 14.9351C13.4351 14.8919 13.4567 14.8366 13.4567 14.7692V10.5C13.4567 10.0875 13.3098 9.73438 13.0161 9.44063C12.7223 9.14688 12.3692 9 11.9567 9H8.20671C7.79421 9 7.44109 9.14688 7.14734 9.44063C6.85359 9.73438 6.70671 10.0875 6.70671 10.5V14.7692C6.70671 14.8366 6.72833 14.8919 6.77158 14.9351C6.81496 14.9784 6.87027 15 6.93752 15ZM9.51921 14.0625H10.6442V12.5625H12.1442V11.4375H10.6442V9.9375H9.51921V11.4375H8.01921V12.5625H9.51921V14.0625ZM6.93752 15H6.70671H13.4567H6.93752Z" fill="#E8EAED"/>
</svg>
