<svg width="14" height="14" viewBox="0 0 14 14" fill="none" xmlns="http://www.w3.org/2000/svg">
<path d="M12.0192 13.375C12.3981 13.375 12.7188 13.2438 12.9812 12.9813C13.2437 12.7188 13.375 12.3981 13.375 12.0192V1.98081C13.375 1.60194 13.2437 1.28125 12.9812 1.01875C12.7188 0.75625 12.3981 0.625 12.0192 0.625H6.99287V1.75H12.0192C12.0769 1.75 12.1298 1.77406 12.1778 1.82219C12.2259 1.87019 12.25 1.92306 12.25 1.98081V12.0192C12.25 12.0769 12.2259 12.1298 12.1778 12.1778C12.1298 12.2259 12.0769 12.25 12.0192 12.25H6.99287V13.375H12.0192ZM3.82694 10.2019L4.60581 9.38838L2.77975 7.5625H9.17781V6.4375H2.77975L4.60581 4.61162L3.82694 3.79806L0.624999 7L3.82694 10.2019Z" fill="#E8EAED"/>
</svg>
