<svg width="450" height="300" viewBox="0 0 450 300" fill="none" xmlns="http://www.w3.org/2000/svg">
<path d="M400.17 90.1619L394.428 117.972L390.732 114.366L384.444 118.854L379.638 112.884L368.862 120.72L359.652 105.318L349.38 111.336L345.306 105.72L332.262 113.07L328.338 104.664L337.482 60.3779L386.502 70.4999L400.17 90.1619Z" fill="#EBEBEB"/>
<path d="M386.502 70.5L400.17 90.162L383.166 86.652L386.502 70.5Z" fill="#DBDBDB"/>
<path d="M393.204 123.528L384.786 164.328L318.756 150.696L327.114 110.226L331.038 118.626L344.088 111.276L348.156 116.892L358.434 110.88L367.638 126.282L378.42 118.446L383.22 124.41L389.514 119.928L393.204 123.528Z" fill="#EBEBEB"/>
<path d="M298.698 118.746L231.408 122.91L226.062 36.534L276.03 33.438L294.372 48.828L298.698 118.746Z" fill="#EBEBEB"/>
<path d="M276.03 33.438L294.372 48.828L277.044 49.902L276.03 33.438Z" fill="#DBDBDB"/>
<path d="M257.4 91.5601L257.136 89.6101C256.458 85.5721 257.562 81.0541 261.072 76.3321C264.24 72.1321 265.956 69.1321 265.764 65.7241C265.548 61.8841 262.998 59.4601 258.252 59.6521C255.54 59.7929 252.934 60.7555 250.782 62.4121L248.712 57.7741C251.112 55.8241 255.312 54.3841 259.302 54.1741C267.96 53.6941 272.172 58.8181 272.502 64.5361C272.79 69.6541 270.138 73.5001 266.766 77.9941C263.67 82.0921 262.656 85.4701 263.094 89.2921L263.28 91.2481L257.4 91.5601ZM256.332 102.186C256.176 99.4021 257.946 97.3381 260.58 97.1941C263.214 97.0501 265.134 98.8981 265.29 101.688C265.434 104.322 263.82 106.446 261.036 106.602C258.378 106.752 256.458 104.82 256.308 102.186H256.332Z" fill="#DBDBDB"/>
<path d="M89.0879 76.866L82.3199 73.8L81.3779 75.87C81.2388 76.1659 81.0218 76.4182 80.7501 76.6C80.4785 76.7819 80.1624 76.8863 79.8359 76.902C79.464 76.9142 79.0932 76.9503 78.7259 77.0101C78.4035 77.0579 78.0741 77.0174 77.7729 76.8927C77.4718 76.768 77.2101 76.5638 77.0159 76.302L75.6899 74.448L69.6479 78.7801L70.9739 80.634C71.1583 80.9016 71.2669 81.2142 71.288 81.5385C71.3091 81.8628 71.2421 82.1868 71.0939 82.4761C70.9228 82.806 70.7686 83.1444 70.6319 83.49C70.513 83.7948 70.3134 84.0614 70.0544 84.2612C69.7954 84.461 69.4868 84.5864 69.1619 84.624L66.8999 84.8461L67.6259 92.2441L69.8999 92.0161C70.226 91.99 70.5531 92.0533 70.8459 92.1992C71.1387 92.3451 71.3863 92.568 71.5619 92.8441C71.6579 93.0001 71.7599 93.15 71.8679 93.3C71.9759 93.4501 72.0839 93.594 72.1979 93.738C72.405 93.99 72.5381 94.2944 72.5826 94.6174C72.6271 94.9405 72.5812 95.2695 72.4499 95.568L71.5019 97.656L78.2759 100.728L79.2179 98.6461C79.3583 98.3505 79.5766 98.0988 79.8494 97.918C80.1221 97.7372 80.439 97.6342 80.7659 97.62C81.1337 97.6049 81.5002 97.5688 81.8639 97.5121C82.1863 97.4642 82.5157 97.5047 82.8169 97.6294C83.118 97.7541 83.3797 97.9583 83.5739 98.22L84.8999 100.074L90.9479 95.7421L89.6219 93.888C89.4318 93.6229 89.3198 93.3098 89.2986 92.9842C89.2774 92.6586 89.3478 92.3336 89.5019 92.0461C89.669 91.718 89.8192 91.3815 89.9519 91.038C90.0673 90.7311 90.266 90.4623 90.5256 90.262C90.7853 90.0617 91.0957 89.9377 91.4219 89.904L93.6959 89.6761L92.9639 82.2781L90.6899 82.5C90.3658 82.5285 90.0402 82.4668 89.749 82.3217C89.4578 82.1767 89.2124 81.9539 89.0399 81.6781C88.9379 81.5221 88.8359 81.372 88.7279 81.222C88.6199 81.072 88.5119 80.922 88.3979 80.784C88.1922 80.529 88.0601 80.2227 88.0157 79.8981C87.9713 79.5735 88.0163 79.2429 88.1459 78.9421L89.0879 76.866ZM85.2479 83.7121C85.9495 84.6912 86.3451 85.8564 86.3844 87.0603C86.4238 88.2642 86.1053 89.4528 85.4691 90.4757C84.8329 91.4986 83.9077 92.3098 82.8105 92.8068C81.7132 93.3038 80.4932 93.4643 79.3048 93.2679C78.1163 93.0715 77.0128 92.5271 76.1338 91.7035C75.2548 90.8799 74.6397 89.8141 74.3665 88.6409C74.0932 87.4677 74.174 86.2399 74.5986 85.1126C75.0232 83.9854 75.7726 83.0094 76.7519 82.308C78.0648 81.3678 79.6974 80.9876 81.2906 81.2509C82.8839 81.5141 84.3073 82.3994 85.2479 83.7121Z" fill="#EBEBEB"/>
<path d="M395.028 175.026L390.516 177.63L391.314 179.01C391.433 179.208 391.492 179.436 391.485 179.667C391.478 179.898 391.404 180.122 391.272 180.312C391.134 180.528 391.002 180.75 390.882 180.984C390.783 181.191 390.628 181.365 390.433 181.486C390.238 181.608 390.013 181.671 389.784 181.668H388.2V186.882H389.796C390.025 186.879 390.25 186.942 390.445 187.063C390.64 187.184 390.795 187.359 390.894 187.566C391.014 187.8 391.146 188.022 391.284 188.238C391.416 188.428 391.49 188.652 391.497 188.883C391.504 189.114 391.445 189.342 391.326 189.54L390.528 190.92L395.04 193.524L395.844 192.138C395.96 191.941 396.129 191.781 396.332 191.675C396.534 191.569 396.762 191.522 396.99 191.538H397.758C397.986 191.522 398.213 191.57 398.416 191.676C398.618 191.782 398.787 191.942 398.904 192.138L399.708 193.53L404.214 190.926L403.416 189.54C403.302 189.341 403.247 189.114 403.255 188.885C403.264 188.656 403.336 188.434 403.464 188.244C403.602 188.028 403.734 187.8 403.854 187.572C403.953 187.365 404.108 187.19 404.303 187.069C404.497 186.948 404.723 186.885 404.952 186.888H406.548V181.674H404.94C404.711 181.677 404.485 181.614 404.291 181.493C404.096 181.371 403.941 181.197 403.842 180.99C403.722 180.762 403.59 180.534 403.452 180.318C403.324 180.128 403.252 179.906 403.243 179.677C403.235 179.448 403.29 179.221 403.404 179.022L404.202 177.636L399.696 175.032L398.892 176.4C398.776 176.596 398.607 176.757 398.404 176.863C398.202 176.969 397.974 177.016 397.746 177H397.362H396.978C396.749 177.015 396.521 176.967 396.318 176.862C396.115 176.756 395.944 176.596 395.826 176.4L395.028 175.026ZM397.362 180.006C398.207 180.005 399.034 180.254 399.738 180.723C400.441 181.192 400.99 181.859 401.314 182.64C401.638 183.421 401.723 184.281 401.558 185.11C401.394 185.939 400.987 186.701 400.389 187.299C399.791 187.896 399.029 188.303 398.2 188.468C397.371 188.633 396.511 188.548 395.73 188.224C394.949 187.899 394.282 187.351 393.813 186.648C393.344 185.944 393.095 185.117 393.096 184.272C393.095 183.711 393.205 183.156 393.419 182.638C393.633 182.119 393.947 181.648 394.343 181.251C394.74 180.855 395.21 180.54 395.728 180.325C396.246 180.11 396.801 180 397.362 180V180.006Z" fill="#EBEBEB"/>
<path d="M102.78 54.696L98.646 57.864L99.6 59.13C99.7423 59.3104 99.8298 59.5278 99.8521 59.7565C99.8745 59.9852 99.8307 60.2155 99.726 60.42C99.6112 60.6535 99.511 60.894 99.426 61.14C99.352 61.3567 99.219 61.5484 99.042 61.6937C98.865 61.8389 98.6509 61.9318 98.424 61.962L96.84 62.166L97.512 67.332L99.096 67.128C99.3265 67.0958 99.5615 67.1295 99.7738 67.225C99.9861 67.3205 100.167 67.4741 100.296 67.668C100.44 67.8767 100.597 68.077 100.764 68.268C100.919 68.438 101.021 68.6488 101.059 68.8753C101.098 69.1019 101.07 69.3346 100.98 69.546L100.38 71.022L105.18 73.02L105.78 71.544C105.869 71.3322 106.016 71.1497 106.204 71.0172C106.391 70.8846 106.613 70.8073 106.842 70.794L107.226 70.752L107.604 70.692C107.826 70.6501 108.055 70.67 108.267 70.7493C108.478 70.8286 108.664 70.9644 108.804 71.142L109.782 72.42L113.916 69.252L112.95 67.986C112.81 67.8031 112.725 67.5849 112.702 67.3559C112.68 67.127 112.722 66.8963 112.824 66.69C112.938 66.458 113.038 66.2196 113.124 65.976C113.198 65.7593 113.331 65.5675 113.508 65.4223C113.685 65.2771 113.899 65.1841 114.126 65.154L115.71 64.95L115.038 59.784L113.454 59.988C113.224 60.0207 112.989 59.988 112.777 59.8936C112.565 59.7991 112.384 59.6468 112.254 59.454C112.104 59.238 111.948 59.034 111.78 58.854C111.64 58.6803 111.55 58.4723 111.518 58.2517C111.486 58.031 111.515 57.8059 111.6 57.6L112.2 56.124L107.4 54.126L106.8 55.602C106.71 55.8129 106.562 55.9946 106.375 56.127C106.187 56.2594 105.967 56.3373 105.738 56.352L105.354 56.388L105 56.4C104.778 56.4418 104.549 56.422 104.337 56.3427C104.126 56.2633 103.94 56.1275 103.8 55.95L102.78 54.696ZM105.738 59.334C106.574 59.2265 107.423 59.369 108.178 59.7435C108.932 60.1179 109.56 60.7076 109.98 61.438C110.4 62.1684 110.594 63.007 110.539 63.8478C110.483 64.6886 110.179 65.494 109.666 66.1625C109.153 66.831 108.453 67.3325 107.656 67.6039C106.858 67.8753 105.998 67.9043 105.183 67.6873C104.369 67.4703 103.637 67.017 103.08 66.3847C102.524 65.7523 102.166 64.9691 102.054 64.134C101.979 63.5767 102.015 63.01 102.16 62.4667C102.305 61.9233 102.555 61.4139 102.898 60.9678C103.24 60.5217 103.667 60.1477 104.155 59.8673C104.642 59.5869 105.18 59.4057 105.738 59.334Z" fill="#EBEBEB"/>
<path d="M71.892 190.068C72.1174 184.268 72.0373 178.46 71.652 172.668C70.7935 160.708 68.9696 148.838 66.198 137.172C64.674 130.608 62.802 124.152 60.846 117.702C60.786 117.504 60.474 117.558 60.528 117.762C66.57 140.502 71.526 163.962 71.184 187.602C71.088 194.202 70.32 200.712 69.696 207.288C69.696 207.462 69.966 207.534 70.008 207.354C71.25 201.708 71.658 195.816 71.892 190.068Z" fill="#EBEBEB"/>
<path d="M60.5279 117.744C60.5279 117.744 51.3839 140.964 53.4299 146.4C55.4759 151.836 59.6999 153 59.6999 153C59.6999 153 54.1019 160.992 58.0139 168.486C61.9259 175.98 70.6139 175.626 71.2139 184.122C71.1959 184.164 71.6759 148.638 60.5279 117.744Z" fill="#EBEBEB"/>
<path d="M70.2 169.494C70.2148 169.455 70.2148 169.413 70.2 169.374C68.9999 153.521 66.0253 137.853 61.332 122.664C61.332 122.622 61.242 122.634 61.254 122.664C63.066 129.464 64.666 136.292 66.054 143.148C64.8247 141.983 63.3228 141.146 61.686 140.712C61.686 140.712 61.638 140.748 61.686 140.76C63.4056 141.39 64.9517 142.418 66.198 143.76C66.462 145.11 66.726 146.454 66.972 147.804C64.926 145.518 62.094 144.384 59.256 143.304C59.2496 143.307 59.2441 143.311 59.2403 143.317C59.2364 143.323 59.2344 143.33 59.2344 143.337C59.2344 143.344 59.2364 143.351 59.2403 143.357C59.2441 143.362 59.2496 143.367 59.256 143.37C62.214 144.57 65.154 146.118 67.158 148.668C67.854 152.52 68.466 156.386 68.994 160.266C67.5167 158.718 65.6221 157.632 63.54 157.14C63.474 157.14 63.438 157.218 63.504 157.236C65.6428 157.866 67.5524 159.104 69 160.8H69.036C69.216 162.16 69.388 163.526 69.552 164.898C68.4092 163.931 67.1188 163.153 65.73 162.594C65.694 162.594 65.67 162.636 65.73 162.648C67.1473 163.262 68.4452 164.121 69.564 165.186C69.564 165.186 69.594 165.186 69.612 165.186C69.762 166.488 69.912 167.79 70.044 169.092C67.9837 166.601 65.3098 164.69 62.286 163.548C62.2733 163.548 62.2611 163.553 62.252 163.562C62.243 163.571 62.238 163.583 62.238 163.596C62.238 163.609 62.243 163.621 62.252 163.63C62.2611 163.639 62.2733 163.644 62.286 163.644C65.2718 164.96 67.8946 166.98 69.93 169.53C69.9524 169.558 69.9826 169.579 70.0168 169.589C70.051 169.6 70.0877 169.6 70.122 169.59C70.32 171.588 70.5 173.586 70.644 175.59C70.644 175.62 70.692 175.62 70.692 175.59C70.536 173.578 70.372 171.546 70.2 169.494Z" fill="white"/>
<path d="M62.85 138.426C61.194 137.395 59.3022 136.805 57.354 136.71C57.3444 136.71 57.3353 136.714 57.3285 136.72C57.3218 136.727 57.318 136.736 57.318 136.746C57.318 136.756 57.3218 136.765 57.3285 136.771C57.3353 136.778 57.3444 136.782 57.354 136.782C59.2376 137.139 61.0655 137.744 62.79 138.582C62.862 138.6 62.916 138.474 62.85 138.426Z" fill="white"/>
<path d="M63.96 163.008C62.6872 162.277 61.2857 161.799 59.832 161.598C59.784 161.598 59.778 161.664 59.832 161.676C61.2516 161.961 62.6247 162.441 63.912 163.104C63.966 163.134 64.014 163.038 63.96 163.008Z" fill="white"/>
<path d="M95.94 146.802C92.0717 149.476 88.519 152.58 85.35 156.054C82.0818 159.733 79.5609 164.012 77.928 168.654C74.4527 178.325 72.584 188.499 72.396 198.774C72.2795 204.464 72.8251 210.148 74.022 215.712C74.0317 215.753 74.0566 215.788 74.0915 215.81C74.1264 215.833 74.1687 215.841 74.2096 215.833C74.2504 215.826 74.2868 215.803 74.3111 215.769C74.3353 215.735 74.3457 215.693 74.34 215.652C72.8507 205.834 72.9073 195.843 74.508 186.042C76.08 176.442 78.546 165.99 84.654 158.184C87.978 153.93 92.124 150.588 96.222 147.132C96.438 146.94 96.162 146.646 95.94 146.802Z" fill="#EBEBEB"/>
<path d="M73.74 191.85C75.9419 188.289 78.5295 184.981 81.456 181.986C86.034 177.408 89.886 174.156 90.486 171.132C91.086 168.108 85.902 165.876 85.902 165.876C85.902 165.876 92.232 167.016 93.966 164.358C95.7 161.7 96.534 146.304 96.534 146.304C96.534 146.304 85.014 154.53 79.644 166.062C74.274 177.594 73.74 191.85 73.74 191.85Z" fill="#EBEBEB"/>
<path d="M92.4 160.746C91.6414 160.633 90.8725 160.607 90.108 160.668C90.018 160.668 90.024 160.824 90.108 160.83C90.864 160.83 91.626 160.794 92.382 160.83C92.3906 160.828 92.3985 160.823 92.4047 160.817C92.4108 160.81 92.4151 160.802 92.417 160.794C92.4189 160.785 92.4183 160.776 92.4153 160.767C92.4123 160.759 92.407 160.752 92.4 160.746Z" fill="white"/>
<path d="M84.126 175.68C82.9095 175.705 81.707 175.944 80.574 176.388C80.574 176.388 80.574 176.448 80.574 176.442C81.774 176.16 82.932 176.046 84.12 175.842C84.1355 175.835 84.1488 175.824 84.1583 175.81C84.1678 175.796 84.1732 175.78 84.1738 175.763C84.1745 175.746 84.1703 175.729 84.1618 175.715C84.1534 175.7 84.1409 175.688 84.126 175.68Z" fill="white"/>
<path d="M81.6419 170.52C81.1369 170.516 80.6326 170.56 80.1359 170.652C80.1267 170.655 80.1188 170.662 80.1132 170.67C80.1076 170.678 80.1046 170.687 80.1046 170.697C80.1046 170.707 80.1076 170.716 80.1132 170.724C80.1188 170.732 80.1267 170.739 80.1359 170.742C80.6388 170.771 81.1434 170.749 81.6419 170.676C81.6626 170.676 81.6824 170.668 81.6971 170.653C81.7117 170.639 81.7199 170.619 81.7199 170.598C81.7199 170.577 81.7117 170.557 81.6971 170.543C81.6824 170.528 81.6626 170.52 81.6419 170.52Z" fill="white"/>
<path d="M39.966 163.134C43.7155 164.405 47.3085 166.098 50.676 168.18C54.17 170.4 57.2 173.277 59.598 176.652C64.6434 183.675 68.5064 191.476 71.034 199.746C72.4437 204.325 73.3136 209.053 73.626 213.834C73.6194 213.865 73.6025 213.893 73.5779 213.913C73.5533 213.932 73.5226 213.943 73.491 213.943C73.4594 213.943 73.4287 213.932 73.4041 213.913C73.3796 213.893 73.3626 213.865 73.356 213.834C72.2969 205.544 69.9443 197.472 66.384 189.912C62.886 182.502 58.476 174.618 51.732 169.71C48.06 167.04 43.932 165.288 39.816 163.44C39.6 163.368 39.75 163.062 39.966 163.134Z" fill="#EBEBEB"/>
<path d="M68.3459 194.46C65.7392 192.088 62.8801 190.01 59.8199 188.262C55.0559 185.616 51.1859 183.876 50.0039 181.566C48.8219 179.256 52.4999 176.256 52.4999 176.256C52.4999 176.256 47.6399 178.656 45.6239 176.886C43.6079 175.116 39.3719 162.876 39.3719 162.876C39.3719 162.876 50.5979 166.866 57.5999 174.96C64.6019 183.054 68.3459 194.46 68.3459 194.46Z" fill="#EBEBEB"/>
<path d="M59.0279 183.192C57.9242 183.115 56.816 183.252 55.7639 183.594C55.7639 183.594 55.7639 183.648 55.7639 183.642C56.8372 183.458 57.9216 183.346 59.0099 183.306C59.0879 183.306 59.1059 183.198 59.0279 183.192Z" fill="white"/>
<path d="M49.236 170.352C48.7325 170.311 48.2258 170.339 47.73 170.436C47.676 170.436 47.694 170.532 47.73 170.526C48.228 170.472 48.714 170.49 49.206 170.478C49.2213 170.479 49.2363 170.474 49.2485 170.465C49.2607 170.455 49.2693 170.442 49.2728 170.427C49.2764 170.412 49.2746 170.397 49.2679 170.383C49.2612 170.369 49.2499 170.358 49.236 170.352Z" fill="white"/>
<path d="M82.824 229.308H57.486L61.098 202.842L62.022 196.056H78.288L79.212 202.842L82.824 229.308Z" fill="#DBDBDB"/>
<path d="M79.2119 202.842H61.0979L62.0219 196.056H78.2879L79.2119 202.842Z" fill="#C7C7C7"/>
<path d="M80.61 193.704H59.694V199.452H80.61V193.704Z" fill="#DBDBDB"/>
<path d="M41.376 229.308L86.982 229.164L132.588 229.11L223.8 229.008L315.012 229.11L360.618 229.164L406.224 229.308L360.618 229.458L315.012 229.506L223.8 229.608L132.588 229.506L86.982 229.452L41.376 229.308Z" fill="#263238"/>
<path d="M225 274.026C320.017 274.026 397.044 265.586 397.044 255.174C397.044 244.762 320.017 236.322 225 236.322C129.983 236.322 52.9561 244.762 52.9561 255.174C52.9561 265.586 129.983 274.026 225 274.026Z" fill="#EBEBEB"/>
<path d="M184.95 252.054C183.552 252.528 143.466 252.654 141.93 251.706C141.33 251.346 140.988 245.508 140.73 238.44C140.676 236.916 140.634 235.338 140.598 233.742L137.4 212.358L164.202 212.184L166.728 233.574L166.626 238.278C166.626 238.278 181.998 245.088 183.57 246.324C185.142 247.56 186.348 251.58 184.95 252.054Z" fill="#EB9481"/>
<path d="M184.95 252.054C183.552 252.528 143.466 252.654 141.93 251.706C141.222 251.262 140.838 242.736 140.622 233.742L166.698 233.574L166.596 238.278C166.596 238.278 181.968 245.088 183.54 246.324C185.112 247.56 186.348 251.58 184.95 252.054Z" fill="white"/>
<path d="M184.95 252.054C183.552 252.528 143.466 252.654 141.93 251.706C141.33 251.346 140.988 245.508 140.73 238.44L166.572 238.278C166.572 238.278 181.944 245.088 183.516 246.324C185.088 247.56 186.348 251.58 184.95 252.054Z" fill="#A6A6A6"/>
<path d="M184.368 250.452C177.648 250.308 150.528 250.374 143.874 250.746C143.82 250.746 143.82 250.782 143.874 250.788C150.534 251.07 177.654 250.788 184.368 250.56C184.512 250.554 184.512 250.452 184.368 250.452Z" fill="#263238"/>
<path d="M180.954 244.89C180.207 244.873 179.464 245.012 178.773 245.297C178.082 245.582 177.458 246.007 176.94 246.546C175.996 247.508 175.462 248.798 175.452 250.146C175.452 250.188 175.524 250.188 175.53 250.146C175.753 248.819 176.4 247.599 177.373 246.669C178.346 245.739 179.594 245.149 180.93 244.986C180.943 244.989 180.956 244.987 180.967 244.98C180.979 244.974 180.987 244.963 180.99 244.95C180.993 244.937 180.991 244.924 180.984 244.913C180.978 244.901 180.967 244.893 180.954 244.89Z" fill="#263238"/>
<path d="M169.2 238.938C166.512 238.908 163.398 239.868 161.73 242.076C161.67 242.16 161.79 242.25 161.868 242.208C164.216 240.969 166.69 239.983 169.248 239.268C169.288 239.257 169.322 239.232 169.344 239.198C169.367 239.164 169.376 239.123 169.37 239.082C169.364 239.041 169.343 239.004 169.312 238.978C169.281 238.951 169.241 238.937 169.2 238.938Z" fill="#263238"/>
<path d="M171.288 239.736C168.594 239.736 165.48 240.672 163.818 242.874C163.752 242.964 163.872 243.054 163.956 243.012C166.301 241.768 168.773 240.78 171.33 240.066C171.369 240.055 171.403 240.031 171.425 239.997C171.448 239.964 171.457 239.923 171.452 239.883C171.447 239.843 171.428 239.806 171.398 239.779C171.367 239.752 171.328 239.737 171.288 239.736Z" fill="#263238"/>
<path d="M173.364 240.54C170.676 240.54 167.562 241.47 165.894 243.678C165.834 243.762 165.954 243.852 166.032 243.81C168.381 242.57 170.855 241.585 173.412 240.87C173.452 240.859 173.486 240.834 173.508 240.8C173.531 240.766 173.54 240.724 173.534 240.684C173.528 240.643 173.508 240.606 173.476 240.58C173.445 240.553 173.405 240.539 173.364 240.54Z" fill="#263238"/>
<path d="M175.446 241.344C172.752 241.314 169.638 242.274 167.976 244.482C167.91 244.566 168.036 244.656 168.114 244.614C170.462 243.373 172.936 242.388 175.494 241.674C175.534 241.663 175.568 241.638 175.59 241.604C175.613 241.57 175.622 241.528 175.616 241.488C175.61 241.447 175.589 241.41 175.558 241.384C175.527 241.357 175.487 241.343 175.446 241.344Z" fill="#263238"/>
<path d="M145.566 244.356C142.566 244.356 142.566 249.066 145.566 249.048C148.566 249.03 148.59 244.338 145.566 244.356Z" fill="#263238"/>
<path d="M172.086 231.75C170.724 230.622 169.008 231.75 168.174 232.908C166.786 234.955 165.958 237.33 165.774 239.796C165.774 239.85 165.816 239.874 165.858 239.874C165.869 239.925 165.891 239.972 165.924 240.013C165.957 240.053 165.999 240.085 166.047 240.105C166.094 240.126 166.146 240.135 166.198 240.131C166.25 240.127 166.3 240.111 166.344 240.084C168.252 238.758 170.46 237.57 171.906 235.692C172.728 234.6 173.4 232.8 172.086 231.75ZM168.81 237.474C167.886 238.152 166.932 238.782 166.032 239.496C166.512 238.152 166.926 236.796 167.538 235.5C167.821 234.879 168.146 234.277 168.51 233.7C169.11 232.806 171.726 230.55 172.002 233.472C172.158 235.074 169.908 236.67 168.81 237.474Z" fill="#263238"/>
<path d="M159.078 240.816C161.418 241.164 163.836 240.492 166.134 240.126C166.184 240.113 166.23 240.088 166.269 240.054C166.307 240.02 166.338 239.978 166.357 239.93C166.376 239.882 166.384 239.83 166.38 239.779C166.375 239.728 166.359 239.678 166.332 239.634C166.341 239.627 166.348 239.619 166.353 239.609C166.357 239.599 166.36 239.588 166.36 239.577C166.36 239.566 166.357 239.555 166.353 239.545C166.348 239.535 166.341 239.527 166.332 239.52C164.486 237.873 162.238 236.741 159.816 236.238C158.4 235.968 156.396 236.358 156.216 238.116C156 239.772 157.71 240.6 159.078 240.816ZM157.446 239.292C155.646 236.988 159.084 236.79 160.116 237.03C160.786 237.198 161.443 237.41 162.084 237.666C163.396 238.21 164.68 238.821 165.93 239.496C164.79 239.61 163.668 239.814 162.534 239.97C161.178 240.15 158.454 240.558 157.446 239.292Z" fill="#263238"/>
<path d="M97.9919 113.52C97.9919 113.52 129.114 166.464 129.948 170.184C131.226 175.896 138 232.302 138 232.302L170.4 231.702C170.4 231.702 164.82 181.968 159.534 165.582C155.73 153.78 128.262 114.636 128.262 114.636L97.9919 113.52Z" fill="#37474F"/>
<path d="M167.454 226.758C162.804 226.722 146.322 226.536 140.13 227.112C140.082 227.112 140.088 227.196 140.13 227.202C142.26 227.508 162.798 227.034 167.448 226.884C167.458 226.888 167.468 226.889 167.478 226.888C167.489 226.886 167.498 226.883 167.507 226.877C167.516 226.871 167.523 226.864 167.528 226.855C167.533 226.846 167.536 226.835 167.536 226.825C167.537 226.815 167.535 226.805 167.531 226.795C167.526 226.786 167.52 226.777 167.512 226.771C167.504 226.764 167.495 226.76 167.485 226.758C167.474 226.755 167.464 226.756 167.454 226.758Z" fill="#263238"/>
<path d="M103.302 118.38C105.342 121.578 107.502 124.71 109.578 127.884C111.654 131.058 113.742 134.232 115.8 137.4C119.904 143.8 123.904 150.242 127.8 156.726C129.701 159.732 131.328 162.902 132.66 166.2C133.876 169.498 134.79 172.9 135.39 176.364C136.026 179.838 136.446 183.348 136.836 186.858C137.236 190.59 137.654 194.324 138.09 198.06C138.942 205.704 139.796 213.348 140.652 220.992C140.754 221.928 140.856 222.864 140.952 223.806C140.952 223.944 140.718 223.968 140.7 223.806C139.746 216.216 138.954 208.596 138.09 201.006C137.658 197.218 137.228 193.432 136.8 189.648C136.398 186.126 136.014 182.598 135.468 179.1C134.967 175.647 134.205 172.237 133.188 168.9C132.068 165.444 130.566 162.124 128.712 159C124.962 152.526 120.99 146.166 117.018 139.8C113.046 133.434 108.966 127.014 104.778 120.726C104.262 119.952 103.74 119.178 103.2 118.416C103.158 118.374 103.266 118.32 103.302 118.38Z" fill="#263238"/>
<path d="M108.192 255.174C106.716 255.084 68.592 239.64 67.536 238.176C67.489 238.09 67.4681 237.992 67.476 237.894C67.476 236.58 70.122 231.996 72.33 225.972C72.468 225.588 73.452 223.8 74.814 221.394C78.6 214.8 85.2 203.442 85.2 203.442L110.118 213.342L98.19 231.192L96.336 235.512C96.336 235.512 108.03 247.602 109.014 249.312C109.998 251.022 109.662 255.258 108.192 255.174Z" fill="#EB9481"/>
<path d="M108.192 255.174C106.716 255.084 68.592 239.64 67.536 238.176C67.489 238.09 67.4681 237.992 67.476 237.894C67.476 236.58 70.122 231.996 72.33 225.972C72.468 225.588 73.452 223.8 74.814 221.394L98.214 231.192L96.36 235.512C96.36 235.512 108.054 247.602 109.038 249.312C110.022 251.022 109.662 255.258 108.192 255.174Z" fill="white"/>
<path d="M108.192 255.174C106.716 255.084 68.592 239.64 67.536 238.176C67.128 237.618 68.832 232.416 72.336 225.972L96.336 235.518C96.336 235.518 108.03 247.596 109.02 249.318C110.01 251.04 109.662 255.258 108.192 255.174Z" fill="#A6A6A6"/>
<path d="M108.252 253.47C102.078 250.818 76.914 240.702 70.608 238.554C70.554 238.554 70.542 238.554 70.608 238.59C76.674 241.35 101.916 251.262 108.228 253.59C108.348 253.62 108.384 253.524 108.252 253.47Z" fill="#263238"/>
<path d="M107.172 247.032C106.487 246.731 105.748 246.576 105 246.576C104.252 246.576 103.513 246.731 102.828 247.032C101.597 247.571 100.621 248.564 100.104 249.804C100.104 249.84 100.158 249.87 100.176 249.834C100.883 248.684 101.944 247.793 103.2 247.297C104.456 246.8 105.839 246.724 107.142 247.08C107.152 247.077 107.161 247.071 107.166 247.062C107.172 247.053 107.174 247.042 107.172 247.032Z" fill="#263238"/>
<path d="M98.5141 237.108C96.0361 236.07 92.7841 235.794 90.4141 237.216C90.3241 237.27 90.4141 237.396 90.4921 237.39C93.134 237.122 95.797 237.136 98.436 237.432C98.4767 237.437 98.5175 237.426 98.5509 237.402C98.5843 237.379 98.608 237.344 98.6176 237.304C98.6271 237.265 98.6219 237.223 98.6028 237.187C98.5838 237.151 98.5522 237.123 98.5141 237.108Z" fill="#263238"/>
<path d="M100.14 238.632C97.662 237.594 94.41 237.318 92.04 238.74C91.95 238.794 92.04 238.92 92.118 238.914C94.7599 238.643 97.4232 238.657 100.062 238.956C100.103 238.96 100.143 238.95 100.177 238.926C100.21 238.903 100.234 238.868 100.244 238.828C100.253 238.789 100.248 238.747 100.229 238.711C100.21 238.675 100.178 238.647 100.14 238.632Z" fill="#263238"/>
<path d="M101.772 240.156C99.288 239.118 96.036 238.842 93.672 240.264C93.576 240.318 93.672 240.444 93.744 240.438C96.3858 240.167 99.0492 240.181 101.688 240.48C101.729 240.487 101.772 240.478 101.807 240.455C101.842 240.432 101.868 240.397 101.878 240.356C101.889 240.316 101.884 240.273 101.864 240.235C101.844 240.198 101.812 240.17 101.772 240.156Z" fill="#263238"/>
<path d="M103.398 241.68C100.914 240.642 97.668 240.366 95.298 241.782C95.202 241.842 95.298 241.968 95.37 241.962C98.0118 241.691 100.675 241.705 103.314 242.004C103.355 242.011 103.398 242.002 103.433 241.979C103.468 241.956 103.494 241.921 103.504 241.88C103.515 241.84 103.51 241.797 103.49 241.76C103.47 241.722 103.438 241.694 103.398 241.68Z" fill="#263238"/>
<path d="M74.5681 233.262C71.7661 232.146 70.0261 236.508 72.8401 237.624C75.6541 238.74 77.4001 234.378 74.5681 233.262Z" fill="#263238"/>
<path d="M103.884 231.528C103.038 229.974 101.04 230.358 99.822 231.132C97.7702 232.507 96.1151 234.395 95.022 236.61C95.0172 236.62 95.0146 236.63 95.0145 236.641C95.0144 236.652 95.0168 236.663 95.0214 236.673C95.026 236.682 95.0328 236.691 95.0412 236.698C95.0496 236.705 95.0594 236.71 95.07 236.712C95.07 236.91 95.202 237.144 95.436 237.096C97.71 236.574 100.2 236.304 102.24 235.104C103.41 234.408 104.682 232.998 103.884 231.528ZM98.694 235.602C97.584 235.884 96.468 236.112 95.37 236.436C96.2782 235.342 97.2414 234.294 98.256 233.298C98.7554 232.822 99.2867 232.381 99.846 231.978C100.716 231.378 104.004 230.268 103.164 233.082C102.702 234.636 100.02 235.266 98.694 235.602Z" fill="#263238"/>
<path d="M88.422 235.05C90.462 236.25 92.952 236.532 95.22 237.06C95.454 237.114 95.61 236.88 95.592 236.676C95.6033 236.675 95.614 236.671 95.6232 236.664C95.6325 236.658 95.6398 236.649 95.6446 236.639C95.6495 236.628 95.6516 236.617 95.6508 236.606C95.65 236.594 95.6462 236.584 95.64 236.574C94.5486 234.355 92.8934 232.462 90.84 231.084C89.64 230.304 87.63 229.914 86.778 231.462C85.926 233.01 87.228 234.348 88.422 235.05ZM87.486 233.022C86.652 230.208 89.934 231.324 90.804 231.93C91.3626 232.334 91.892 232.777 92.388 233.256C93.4006 234.255 94.3618 235.304 95.268 236.4C94.17 236.076 93.054 235.842 91.944 235.56C90.6 235.2 87.942 234.6 87.486 233.022Z" fill="#263238"/>
<path d="M100.128 230.196L72.234 218.934C72.234 218.934 106.818 168.084 107.07 164.298C107.298 160.95 92.106 131.778 91.512 123.276C90.864 114.096 95.28 106.998 100.14 102.588L128.91 114.822C128.91 114.822 125.874 119.676 121.11 122.382C121.11 122.382 135.864 156.102 135.024 166.47C134.184 176.838 100.128 230.196 100.128 230.196Z" fill="#37474F"/>
<path d="M101.364 224.892C97.332 223.158 98.514 223.596 94.458 221.892C92.478 221.064 79.458 215.646 77.454 215.196C77.412 215.196 77.382 215.256 77.424 215.28C79.158 216.342 92.286 221.532 94.284 222.324C98.37 223.932 97.212 223.428 101.316 224.988C101.322 224.996 101.33 225.003 101.34 225.007C101.349 225.011 101.359 225.013 101.369 225.012C101.38 225.011 101.389 225.007 101.398 225.002C101.406 224.996 101.413 224.988 101.418 224.979C101.422 224.97 101.424 224.96 101.424 224.949C101.424 224.939 101.42 224.929 101.415 224.921C101.41 224.912 101.402 224.905 101.393 224.9C101.384 224.895 101.374 224.892 101.364 224.892Z" fill="#263238"/>
<path d="M125.826 121.764C122.831 122.462 119.9 123.414 117.066 124.608C117.055 124.612 117.044 124.618 117.035 124.626C117.026 124.634 117.018 124.644 117.013 124.655C117.008 124.666 117.005 124.677 117.004 124.689C117.003 124.702 117.005 124.714 117.009 124.725C117.013 124.736 117.019 124.747 117.027 124.756C117.035 124.765 117.045 124.772 117.056 124.778C117.066 124.783 117.078 124.786 117.09 124.787C117.102 124.788 117.115 124.786 117.126 124.782C120.066 123.924 123.054 123.12 125.946 122.106C126.168 122.028 126.054 121.716 125.826 121.764Z" fill="#263238"/>
<path d="M122.4 120.6C122.12 121.097 121.874 121.612 121.662 122.142C121.455 122.544 121.327 122.982 121.284 123.432C121.284 123.522 121.404 123.54 121.458 123.486C121.759 123.126 122.002 122.721 122.178 122.286C122.424 121.812 122.676 121.344 122.91 120.858C123.072 120.504 122.586 120.276 122.4 120.6Z" fill="#263238"/>
<path d="M122.76 117.876C122.94 117.432 123.114 116.994 123.3 116.55C123.486 116.106 123.72 115.65 123.9 115.182C123.9 115.11 124.044 115.182 124.014 115.236C123.834 115.68 123.72 116.148 123.582 116.604C123.444 117.06 123.288 117.516 123.138 117.972C122.856 118.818 122.538 119.658 122.148 120.48C122.62 120.504 123.091 120.422 123.528 120.24C123.974 119.955 124.316 119.534 124.506 119.04C124.758 118.548 124.992 118.044 125.25 117.552C125.568 117.02 125.835 116.46 126.048 115.878C126.048 115.806 126.192 115.878 126.162 115.932C125.771 117.162 125.258 118.35 124.632 119.478C124.362 119.916 124.152 120.378 123.66 120.546C123.127 120.695 122.57 120.734 122.022 120.66C121.95 120.66 121.866 120.66 121.89 120.552C122.136 119.646 122.426 118.753 122.76 117.876Z" fill="#263238"/>
<path d="M121.536 123.48C122.562 125.646 123.462 127.806 124.416 129.966C125.37 132.126 126.216 134.214 127.074 136.362C128.79 140.694 130.326 145.11 131.676 149.562C132.342 151.77 132.96 153.996 133.512 156.24C134.12 158.477 134.565 160.755 134.844 163.056C135.085 165.353 134.881 167.676 134.244 169.896C133.582 172.091 132.733 174.225 131.706 176.274C131.076 177.57 130.866 177.396 131.166 176.742C132.024 174.882 134.274 169.248 134.112 164.514C133.981 162.248 133.631 159.999 133.068 157.8C132.544 155.532 131.954 153.282 131.298 151.05C130.02 146.646 128.502 142.332 126.942 138.024C126.066 135.624 125.142 133.224 124.242 130.824C123.342 128.424 122.442 126.216 121.434 123.564C121.404 123.456 121.506 123.414 121.536 123.48Z" fill="#263238"/>
<path d="M100.362 116.322C100.86 116.136 101.562 116.442 102.066 116.526C102.719 116.637 103.378 116.703 104.04 116.724C104.695 116.747 105.35 116.725 106.002 116.658C106.658 116.641 107.302 116.471 107.88 116.16C108.829 115.469 109.643 114.608 110.28 113.622C111.039 112.614 111.667 111.513 112.146 110.346C112.146 110.274 112.272 110.346 112.248 110.394C112.038 111.06 111.882 111.732 111.648 112.386C111.389 113.001 111.08 113.593 110.724 114.156C110.146 115.29 109.292 116.26 108.24 116.976C107.082 117.636 105.594 117.576 104.304 117.522C103.556 117.479 102.812 117.38 102.078 117.228C101.55 117.114 100.662 117.03 100.326 116.568C100.31 116.55 100.298 116.53 100.292 116.507C100.285 116.484 100.283 116.46 100.286 116.437C100.29 116.413 100.298 116.391 100.312 116.371C100.325 116.351 100.342 116.335 100.362 116.322Z" fill="#263238"/>
<path d="M80.196 213.6C84.78 206.656 89.28 199.656 93.696 192.6C98.112 185.544 102.468 178.434 106.764 171.27C107.79 169.56 108.972 167.856 109.632 165.96C110.352 163.902 109.944 161.904 109.296 159.888C108.072 156.21 106.642 152.605 105.012 149.088C103.404 145.542 101.67 142.056 99.966 138.558C98.262 135.06 96.48 131.604 95.166 127.956C93.966 124.47 93.48 120.858 94.416 117.246C95.352 113.634 97.368 110.442 99.474 107.436C100.026 106.644 100.596 105.858 101.154 105.036C101.196 104.976 101.286 105.036 101.244 105.108C98.922 108.24 96.66 111.558 95.298 115.236C94.6019 117.049 94.2126 118.965 94.146 120.906C94.1347 122.876 94.4406 124.835 95.052 126.708C96.18 130.356 97.962 133.806 99.624 137.238C101.286 140.67 103.062 144.222 104.7 147.756C106.39 151.313 107.892 154.956 109.2 158.67C109.758 160.32 110.4 162.048 110.352 163.818C110.31 165.756 109.386 167.502 108.426 169.134C104.226 176.244 99.924 183.27 95.544 190.254C91.164 197.238 86.658 204.222 82.098 211.134L80.37 213.744C80.28 213.852 80.124 213.726 80.196 213.6Z" fill="#263238"/>
<path d="M130.506 82.4821C133.104 88.1821 146.226 96.0361 152.37 96.8821C156.786 97.4821 170.214 97.6981 174.816 96.9961C180.216 96.1681 176.088 81.6181 172.902 81.9961C164.142 83.0161 156.702 84.1561 154.362 84.1561C151.506 84.1561 136.056 79.2001 134.196 78.4981C129.636 76.8001 129.036 79.2481 130.506 82.4821Z" fill="#EB9481"/>
<path d="M130.59 84C133.878 88.866 144.804 96.822 144.804 96.822L146.322 93.462L151.344 82.35C151.344 82.35 141.306 79.2 134.7 77.76C133.923 77.5831 133.132 77.4707 132.336 77.424C128.118 77.196 127.752 79.8 130.59 84Z" fill="#3399FE"/>
<path d="M130.59 83.9999C133.878 88.8659 144.804 96.8219 144.804 96.8219L146.322 93.4619C142.248 88.7279 135.954 81.5579 132.336 77.4359C128.118 77.1959 127.752 79.7999 130.59 83.9999Z" fill="#263238"/>
<path d="M142.836 94.566C143.67 92.52 147.378 84.282 148.302 82.566C148.362 82.446 148.458 82.458 148.404 82.566C146.796 86.6628 144.965 90.6687 142.92 94.566C142.896 94.638 142.8 94.614 142.836 94.566Z" fill="#263238"/>
<path d="M171.294 82.1461C176.622 81.4501 183.216 80.2561 188.802 82.6261C189.429 82.8721 189.956 83.3223 190.296 83.904C192.816 84.924 193.092 86.418 193.092 86.418C195.15 88.086 195.222 89.658 195.222 89.658C195.222 89.658 198.174 90.858 197.724 92.79C197.232 94.926 193.188 92.7901 190.248 92.9641C183.498 93.3841 174.048 95.862 172.098 96.174L171.294 82.1461Z" fill="#EB9481"/>
<path d="M182.868 88.4341C184.842 88.2991 186.822 88.2991 188.796 88.4341C190.945 88.7038 193.071 89.135 195.156 89.7241C195.17 89.7289 195.184 89.7281 195.197 89.7219C195.21 89.7157 195.22 89.7046 195.225 89.6911C195.23 89.6776 195.229 89.6627 195.223 89.6498C195.217 89.6368 195.206 89.6269 195.192 89.6221C191.276 88.0856 187.013 87.6539 182.868 88.3741C182.772 88.3621 182.772 88.4401 182.868 88.4341Z" fill="#263238"/>
<path d="M181.614 82.2002C184.908 82.3682 186.966 82.8962 190.278 83.8922V83.8562C186.63 82.3322 185.136 82.1882 181.596 82.0562C181.482 82.1042 181.488 82.2002 181.614 82.2002Z" fill="#263238"/>
<path d="M182.148 93.9841C181.29 94.3861 181.5 94.8361 183.138 95.2141C184.776 95.5921 191.586 95.7061 191.346 98.0821C191.106 100.458 181.5 100.158 178.818 99.3181C176.136 98.4781 172.098 96.1741 172.098 96.1741C174 95.8561 178.464 94.6501 182.148 93.9841Z" fill="#EB9481"/>
<path d="M137.64 91.5661C137.598 92.5921 137.502 93.6361 137.358 94.6741C137.358 94.6321 137.358 94.5961 137.4 94.5601C137.598 94.0201 137.796 93.4681 138.036 92.9461C138.036 92.9461 138.096 92.9461 138.09 92.9461C137.975 93.5181 137.802 94.0769 137.574 94.6141C137.466 94.8721 137.364 95.1241 137.25 95.3761C137.178 95.8381 137.094 96.2941 137.004 96.7501C136.824 97.6081 136.014 101.256 135.804 101.874C135.768 102 135.612 101.97 135.624 101.826C135.666 101.154 136.344 97.3561 136.482 96.4921C136.75 94.8239 137.109 93.1714 137.556 91.5421C137.586 91.5121 137.646 91.5361 137.64 91.5661Z" fill="#263238"/>
<path d="M131.4 118.848C129.798 119.67 127.734 120.948 118.434 119.118C117.834 118.998 117.27 118.854 116.682 118.68C107.964 116.064 97.482 105.81 96.912 105.084C96.912 105.084 110.766 82.6261 128.484 75.5641C130.674 74.6941 134.298 76.3741 136.284 78.4681C136.998 79.2181 138.552 84.7321 137.958 89.1961C137.364 93.6601 132.996 118.026 131.4 118.848Z" fill="#3399FE"/>
<path d="M130.152 88.9919C130.219 89.941 130.086 90.8935 129.762 91.7879C129.686 90.8386 129.819 89.8842 130.152 88.9919Z" fill="white"/>
<path d="M124.11 104.286C124.148 104.758 124.132 105.234 124.062 105.702C124.004 106.174 123.889 106.638 123.72 107.082C123.679 106.608 123.695 106.13 123.768 105.66C123.829 105.191 123.944 104.73 124.11 104.286Z" fill="white"/>
<path d="M113.844 92.7241C113.912 93.6751 113.779 94.6297 113.454 95.5261C113.379 94.5749 113.512 93.6186 113.844 92.7241Z" fill="white"/>
<path d="M134.106 103.506C134.144 103.98 134.128 104.457 134.058 104.928C134 105.4 133.885 105.864 133.716 106.308C133.675 105.834 133.691 105.356 133.764 104.886C133.825 104.414 133.939 103.951 134.106 103.506Z" fill="white"/>
<path d="M120.924 90.744C121.396 90.7038 121.871 90.7179 122.34 90.786C122.812 90.8459 123.276 90.9627 123.72 91.134C122.771 91.2022 121.818 91.0693 120.924 90.744Z" fill="white"/>
<path d="M109.272 101.79C110.221 101.723 111.173 101.856 112.068 102.18C111.119 102.256 110.164 102.123 109.272 101.79Z" fill="white"/>
<path d="M123 113.748C123.949 113.68 124.902 113.813 125.796 114.138C124.847 114.213 123.893 114.08 123 113.748Z" fill="white"/>
<path d="M105.678 109.404C106.627 109.337 107.579 109.47 108.474 109.794C107.525 109.869 106.571 109.736 105.678 109.404Z" fill="white"/>
<path d="M130.062 78.24C131.011 78.1731 131.964 78.306 132.858 78.63C131.909 78.6969 130.956 78.564 130.062 78.24Z" fill="white"/>
<path d="M126.672 82.0681C126.369 82.4328 126.022 82.7591 125.64 83.0401C125.268 83.3276 124.866 83.5731 124.44 83.7721C124.741 83.4098 125.084 83.0836 125.46 82.8001C125.835 82.5115 126.242 82.266 126.672 82.0681Z" fill="white"/>
<path d="M108.198 92.946C107.891 93.3075 107.543 93.6317 107.16 93.912C106.792 94.205 106.389 94.4509 105.96 94.644C106.269 94.2841 106.617 93.9601 106.998 93.678C107.367 93.3864 107.77 93.1406 108.198 92.946Z" fill="white"/>
<path d="M131.268 97.854C130.961 98.2174 130.613 98.5436 130.23 98.826C129.861 99.1177 129.458 99.3635 129.03 99.558C129.337 99.1947 129.685 98.8684 130.068 98.586C130.439 98.2972 130.842 98.0517 131.268 97.854Z" fill="white"/>
<path d="M116.328 107.262C116.021 107.625 115.673 107.952 115.29 108.234C114.92 108.525 114.518 108.771 114.09 108.966C114.397 108.603 114.745 108.276 115.128 107.994C115.499 107.705 115.901 107.46 116.328 107.262Z" fill="white"/>
<path d="M136.992 85.002C136.685 85.3653 136.337 85.6915 135.954 85.974C135.582 86.2615 135.18 86.507 134.754 86.706C135.061 86.3426 135.409 86.0164 135.792 85.734C136.162 85.4431 136.564 85.1974 136.992 85.002Z" fill="white"/>
<path d="M136.68 95.904C136.317 95.5971 135.99 95.2487 135.708 94.866C135.416 94.4974 135.17 94.0944 134.976 93.666C135.341 93.9693 135.667 94.3159 135.948 94.698C136.235 95.0725 136.48 95.4769 136.68 95.904Z" fill="white"/>
<path d="M103.38 103.416C103.017 103.109 102.69 102.761 102.408 102.378C102.119 102.007 101.874 101.604 101.676 101.178C102.039 101.485 102.366 101.833 102.648 102.216C102.939 102.585 103.185 102.988 103.38 103.416Z" fill="white"/>
<path d="M132.63 112.35C132.265 112.047 131.939 111.7 131.658 111.318C131.371 110.946 131.125 110.544 130.926 110.118C131.289 110.425 131.616 110.773 131.898 111.156C132.188 111.524 132.433 111.925 132.63 112.35Z" fill="white"/>
<path d="M117.972 86.88C117.609 86.5751 117.282 86.2288 117 85.8479C116.714 85.4753 116.468 85.073 116.268 84.6479C116.633 84.9513 116.959 85.2978 117.24 85.6799C117.526 86.0526 117.772 86.4549 117.972 86.88Z" fill="white"/>
<path d="M118.23 117.438C117.867 117.131 117.54 116.783 117.258 116.4C116.97 116.028 116.725 115.626 116.526 115.2C116.891 115.503 117.217 115.85 117.498 116.232C117.787 116.605 118.032 117.01 118.23 117.438Z" fill="white"/>
<path d="M120.72 99.414C120.36 99.1054 120.036 98.7572 119.754 98.376C119.461 98.008 119.215 97.6049 119.022 97.176C119.383 97.4831 119.708 97.8314 119.988 98.214C120.28 98.5829 120.525 98.9859 120.72 99.414Z" fill="white"/>
<path d="M133.038 84.4501C130.776 84.0301 128.652 79.3561 128.382 76.2121C128.382 75.9961 129.438 74.2861 130.644 72.1441C131.376 70.8421 132.15 69.3721 132.768 67.9801C132.894 67.6981 133.632 68.6521 133.632 68.6521L135.24 69.8521L140.55 73.9261C139.285 75.4434 138.212 77.1098 137.352 78.8881C137.267 79.0808 137.203 79.2819 137.16 79.4881C137.158 79.5221 137.158 79.5561 137.16 79.5901C136.83 80.7781 135.216 84.8521 133.038 84.4501Z" fill="#EB9481"/>
<path d="M137.16 79.5182C137.158 79.5521 137.158 79.5862 137.16 79.6202C136.845 79.5277 136.538 79.4093 136.242 79.2662C130.428 76.5422 132.99 68.7542 132.99 68.7542L135.27 69.8822L140.58 73.9562C139.316 75.4735 138.242 77.1399 137.382 78.9182C137.287 79.1097 137.212 79.3108 137.16 79.5182Z" fill="#263238"/>
<path d="M146.652 57.3481C146.652 57.3481 149.31 59.0341 149.322 62.0341C149.334 65.0341 148.122 67.9681 147.87 68.0761C147.618 68.1841 146.652 57.3481 146.652 57.3481Z" fill="#263238"/>
<path d="M133.464 58.908C131.868 62.058 131.952 71.988 133.944 74.544C136.836 78.252 142.404 79.53 145.77 75.864C149.028 72.312 148.692 59.376 146.37 56.964C142.992 53.4 135.828 54.246 133.464 58.908Z" fill="#EB9481"/>
<path d="M141.936 66.8582C141.936 66.8582 141.882 66.8942 141.888 66.9182C141.924 67.5962 141.852 68.3762 141.246 68.6162C141.246 68.6162 141.246 68.6582 141.246 68.6522C141.996 68.5322 142.08 67.4942 141.936 66.8582Z" fill="#263238"/>
<path d="M141.318 66.168C140.226 66.108 140.19 68.292 141.204 68.346C142.218 68.4 142.23 66.216 141.318 66.168Z" fill="#263238"/>
<path d="M145.638 66.834C145.638 66.834 145.692 66.834 145.692 66.894C145.656 67.572 145.734 68.352 146.346 68.586C146.346 68.586 146.346 68.628 146.346 68.622C145.59 68.508 145.5 67.47 145.638 66.834Z" fill="#263238"/>
<path d="M146.256 66.1379C147.342 66.0719 147.396 68.2559 146.388 68.3159C145.38 68.3759 145.344 66.1919 146.256 66.1379Z" fill="#263238"/>
<path d="M140.634 64.5062C140.921 64.4246 141.203 64.3284 141.48 64.2182C141.795 64.1611 142.082 64.0007 142.296 63.7622C142.348 63.6748 142.37 63.5728 142.358 63.472C142.346 63.3711 142.301 63.277 142.23 63.2042C142.068 63.0807 141.875 63.0029 141.673 62.9786C141.47 62.9543 141.265 62.9846 141.078 63.0662C140.673 63.1746 140.323 63.4289 140.094 63.7802C140.048 63.8637 140.028 63.9586 140.034 64.0536C140.041 64.1486 140.075 64.2397 140.131 64.3161C140.188 64.3925 140.266 64.451 140.355 64.4847C140.444 64.5184 140.541 64.5258 140.634 64.5062Z" fill="#263238"/>
<path d="M147 65.4721C146.708 65.4069 146.42 65.3267 146.136 65.2321C145.82 65.1903 145.527 65.0447 145.302 64.8181C145.244 64.7347 145.216 64.6341 145.223 64.5328C145.229 64.4315 145.27 64.3354 145.338 64.2601C145.493 64.1278 145.68 64.0396 145.881 64.0048C146.081 63.9699 146.288 63.9897 146.478 64.0621C146.888 64.1472 147.252 64.3826 147.498 64.7221C147.549 64.8025 147.576 64.896 147.576 64.9914C147.575 65.0868 147.546 65.1799 147.493 65.2594C147.441 65.3389 147.366 65.4013 147.278 65.4391C147.191 65.4768 147.094 65.4883 147 65.4721Z" fill="#263238"/>
<path d="M140.4 73.272C140.562 73.434 140.718 73.65 140.964 73.674C141.216 73.6739 141.466 73.6207 141.696 73.518C141.696 73.518 141.738 73.518 141.696 73.554C141.598 73.6859 141.465 73.7885 141.313 73.8509C141.161 73.9133 140.995 73.933 140.832 73.908C140.695 73.8707 140.572 73.7939 140.478 73.6872C140.384 73.5806 140.324 73.4487 140.304 73.308C140.299 73.2953 140.3 73.2812 140.305 73.2688C140.311 73.2564 140.321 73.2468 140.334 73.242C140.347 73.2373 140.361 73.2377 140.373 73.2434C140.386 73.249 140.395 73.2593 140.4 73.272Z" fill="#263238"/>
<path d="M144.324 70.3801C144.324 70.3801 144.354 71.3881 144.324 71.8621C143.402 71.7643 142.471 71.7966 141.558 71.9581C141.342 72.0061 141.366 71.8321 141.612 71.7181C142.347 71.382 143.166 71.2734 143.964 71.4061C144.012 71.2801 143.886 69.8461 143.964 69.8521C144.327 69.9234 144.678 70.0445 145.008 70.2121C145.008 68.1001 144.672 66.0121 144.702 63.9001C144.702 63.8281 144.816 63.8161 144.828 63.9001C145.254 66.1344 145.455 68.4058 145.428 70.6801C145.434 70.9381 144.504 70.4761 144.324 70.3801Z" fill="#263238"/>
<path d="M142.974 71.502C142.735 72.1311 142.291 72.6615 141.714 73.008C140.808 73.374 140.514 72.552 141.426 71.808C141.904 71.5663 142.44 71.4604 142.974 71.502Z" fill="#263238"/>
<path d="M142.032 72.8221C141.936 72.9001 141.829 72.9628 141.714 73.0081C140.88 73.3441 140.55 72.6781 141.222 72.0061C141.678 72.0421 142.2 72.2101 142.032 72.8221Z" fill="#FF99BA"/>
<path d="M133.008 67.3981C134.106 67.7341 135.366 64.4341 135.726 63.1981C136.038 62.0821 136.398 58.5361 136.452 58.2901C136.506 58.0441 141.252 61.4281 144 60.6241C146.748 59.8201 148.614 57.3301 148.656 56.1721C148.698 55.0141 145.26 52.0741 142.29 51.9241C139.32 51.7741 135.294 55.5241 135.294 55.5241C135.78 54.9722 136.222 54.3823 136.614 53.7601C136.566 53.6281 134.646 54.3961 134.292 55.7641C134.292 55.7641 134.676 54.0421 134.532 54.0121C134.388 53.9821 132.894 55.4521 133.23 56.5681C133.23 56.5681 131.502 58.0621 131.346 59.7001C131.19 61.3381 131.718 67.0021 133.008 67.3981Z" fill="#263238"/>
<path d="M145.968 60.0002C145.151 60.4433 144.271 60.7589 143.358 60.9362C142.334 61.0275 141.303 60.8626 140.358 60.4562C139.406 60.0885 138.522 59.5654 137.742 58.9082C137.052 58.3442 136.434 57.6542 135.696 57.1502C135.51 57.0182 135.3 57.2882 135.414 57.4562C136.645 59.1953 138.404 60.4914 140.43 61.1522C141.371 61.4589 142.375 61.5163 143.345 61.3185C144.315 61.1208 145.216 60.6748 145.962 60.0242C145.962 60.0242 145.98 60.0002 145.968 60.0002Z" fill="#263238"/>
<path d="M134.154 67.104C134.154 67.104 132.45 63.648 130.914 64.206C129.378 64.764 130.314 69.546 131.892 70.422C132.085 70.547 132.302 70.6318 132.529 70.6711C132.756 70.7105 132.988 70.7036 133.212 70.6509C133.436 70.5983 133.647 70.5009 133.833 70.3646C134.019 70.2284 134.175 70.056 134.292 69.858L134.154 67.104Z" fill="#EB9481"/>
<path d="M131.22 65.5681C131.22 65.5681 131.184 65.5681 131.22 65.6161C132.312 66.2641 132.756 67.4161 133.02 68.6161C132.97 68.4891 132.894 68.3744 132.795 68.2799C132.697 68.1854 132.579 68.1134 132.45 68.0689C132.321 68.0244 132.184 68.0084 132.048 68.0221C131.913 68.0358 131.781 68.0788 131.664 68.1481C131.628 68.1481 131.664 68.2141 131.664 68.2141C131.879 68.1807 132.098 68.2147 132.293 68.3115C132.487 68.4082 132.647 68.5628 132.75 68.7541C132.922 69.0745 133.059 69.4125 133.158 69.7621C133.194 69.8761 133.392 69.8461 133.374 69.7201C133.632 68.2261 132.792 65.9641 131.22 65.5681Z" fill="#263238"/>
<path d="M122.904 82.5361C121.704 89.3341 129.072 112.236 133.794 116.514C140.82 122.874 153.81 127.056 158.52 128.418C160.572 129.018 166.248 114.576 164.172 113.622C159.726 111.6 145.914 107.28 144.6 106.2C143.286 105.12 135.366 93.6781 131.838 87.0901C127.116 78.2221 123.498 79.0981 122.904 82.5361Z" fill="#EB9481"/>
<path d="M160.674 112.35C160.674 112.35 166.806 113.916 170.76 115.122C172.968 115.8 176.652 117.294 178.05 118.53C180.138 120.384 187.686 129.456 185.526 131.334C183.57 133.038 178.074 124.416 178.074 124.416C178.074 124.416 184.386 132.624 181.674 134.238C178.962 135.852 174 125.286 174 125.286C174 125.286 180.294 133.866 177.216 135.084C174.888 136.002 169.896 126.684 169.896 126.684C169.896 126.684 175.26 134.094 172.896 135.144C170.292 136.308 165.15 127.992 165.15 127.992C158.718 129.654 154.95 127.812 152.472 126.192C151.89 125.796 160.674 112.35 160.674 112.35Z" fill="#EB9481"/>
<path d="M176.07 121.434C176.85 122.37 177.642 123.318 178.332 124.32C179.022 125.322 179.676 126.354 180.27 127.416C181.075 128.79 181.719 130.251 182.19 131.772C181.158 129.132 178.74 125.502 178.05 124.5C177.36 123.498 176.718 122.46 176.034 121.458C176.016 121.434 176.052 121.41 176.07 121.434Z" fill="#263238"/>
<path d="M172.404 123.864C173.736 124.92 176.526 128.844 177.6 131.478C177.648 131.586 177.6 131.58 177.522 131.478C176.682 130.176 173.274 125.136 172.374 123.882C172.356 123.864 172.386 123.846 172.404 123.864Z" fill="#263238"/>
<path d="M168.882 125.4C170.537 127.136 171.845 129.173 172.734 131.4C172.776 131.508 172.692 131.49 172.626 131.4C171.384 129.378 170.424 127.8 168.816 125.454C168.792 125.4 168.846 125.346 168.882 125.4Z" fill="#263238"/>
<path d="M129.6 83.0341C124.122 75.2881 120.846 78.1561 121.944 86.5681C122.976 94.4341 125.73 103.806 125.73 103.806L139.53 97.1101C139.53 97.1101 133.086 87.9961 129.6 83.0341Z" fill="#3399FE"/>
<path d="M132.93 86.082C133.112 86.5195 133.243 86.9766 133.32 87.444C133.404 87.913 133.434 88.3901 133.41 88.866C133.23 88.4262 133.101 87.9672 133.026 87.498C132.937 87.0317 132.904 86.5562 132.93 86.082Z" fill="white"/>
<path d="M124.752 90.7921C125.633 90.4339 126.58 90.2701 127.53 90.3121C127.092 90.492 126.635 90.6209 126.168 90.6961C125.702 90.7851 125.226 90.8174 124.752 90.7921Z" fill="white"/>
<path d="M125.106 78.7441C124.734 79.621 124.18 80.4085 123.48 81.0541C123.852 80.1773 124.406 79.3897 125.106 78.7441Z" fill="white"/>
<path d="M136.8 94.4102C136.618 94.849 136.386 95.2657 136.11 95.6522C135.841 96.0436 135.527 96.402 135.174 96.7202C135.546 95.8433 136.1 95.0558 136.8 94.4102Z" fill="white"/>
<path d="M127.2 99.1082C126.76 98.9282 126.343 98.6966 125.958 98.4182C125.566 98.1493 125.208 97.8351 124.89 97.4822C125.767 97.8537 126.554 98.4081 127.2 99.1082Z" fill="white"/>
<path d="M131.4 85.3682C132.138 86.3822 132.9 87.3722 133.656 88.3682C133.464 87.8642 133.296 87.3542 133.152 86.8382H133.188C133.338 87.2342 133.512 87.6242 133.656 88.0382L133.872 88.6382C133.891 88.6791 133.907 88.7212 133.92 88.7642C134.52 89.5382 135.12 90.3122 135.672 91.1042C136.35 92.0522 137.004 93.0122 137.664 93.9722C138.324 94.9322 138.99 96.1262 139.704 97.0922C139.77 97.1762 138.504 97.6922 138.366 97.7582C138.228 97.8242 138.156 97.7102 138.288 97.6682C138.42 97.6262 139.428 97.0082 139.44 96.9962C138.78 96.0242 138.018 95.1302 137.328 94.1882C136.638 93.2462 135.954 92.3042 135.288 91.3502C133.938 89.4062 132.702 87.3902 131.358 85.4402L131.4 85.3682Z" fill="#263238"/>
<path d="M122.268 92.136C122.478 92.544 122.706 92.946 122.868 93.366L123.096 93.888C122.778 92.394 122.496 90.888 122.166 89.394C122.802 91.794 123.444 94.248 124.032 96.684C124.59 99.012 125.268 101.364 125.592 103.74C126.01 103.557 126.444 103.41 126.888 103.302C126.442 103.59 125.963 103.822 125.46 103.992C124.737 101.576 124.136 99.1248 123.66 96.648C123.51 95.976 123.372 95.304 123.228 94.632C123.072 94.224 122.886 93.834 122.7 93.432C122.514 93.03 122.346 92.58 122.178 92.154C122.214 92.13 122.256 92.106 122.268 92.136Z" fill="#263238"/>
<path d="M125.934 101.49C127.854 100.41 135.876 96.2579 137.67 95.4899C137.796 95.4359 137.862 95.4899 137.736 95.5739C133.928 97.7866 130.002 99.7895 125.976 101.574C125.928 101.586 125.88 101.52 125.934 101.49Z" fill="#263238"/>
<path d="M345.792 259.23H162.984L189.414 109.32H372.222L345.792 259.23Z" fill="#3399FE"/>
<path d="M251.982 93.792H192.156L189.414 109.32H253.44L251.982 93.792Z" fill="#3399FE"/>
<g opacity="0.1">
<path d="M345.792 259.23H162.984L189.414 109.32H372.222L345.792 259.23Z" fill="black"/>
<path d="M251.982 93.792H192.156L189.414 109.32H253.44L251.982 93.792Z" fill="black"/>
</g>
<path d="M185.7 100.128C185.3 98.411 185.3 96.625 185.7 94.908C186.1 96.625 186.1 98.411 185.7 100.128Z" fill="#263238"/>
<path d="M180.384 101.664C179.773 101.031 179.247 100.321 178.818 99.5521C178.368 98.7995 178.015 97.9931 177.768 97.1521C178.381 97.7819 178.907 98.49 179.334 99.2581C179.783 100.013 180.135 100.822 180.384 101.664Z" fill="#263238"/>
<path d="M176.544 105.654C174.858 105.141 173.312 104.248 172.026 103.044C172.867 103.288 173.674 103.639 174.426 104.088C175.195 104.519 175.906 105.045 176.544 105.654Z" fill="#263238"/>
<path d="M175.2 111.03C173.483 111.43 171.697 111.43 169.98 111.03C171.697 110.63 173.483 110.63 175.2 111.03Z" fill="#263238"/>
<path d="M176.76 116.346C176.124 116.954 175.414 117.48 174.648 117.912C173.896 118.361 173.089 118.711 172.248 118.956C172.881 118.345 173.591 117.819 174.36 117.39C175.111 116.939 175.918 116.588 176.76 116.346Z" fill="#263238"/>
<path d="M180.744 120.18C180.233 121.868 179.34 123.417 178.134 124.704C178.378 123.862 178.731 123.055 179.184 122.304C179.612 121.533 180.136 120.819 180.744 120.18Z" fill="#263238"/>
<path d="M186.12 121.506C186.329 122.36 186.43 123.237 186.42 124.116C186.433 124.995 186.332 125.872 186.12 126.726C185.905 125.873 185.804 124.995 185.82 124.116C185.81 123.237 185.911 122.36 186.12 121.506Z" fill="#263238"/>
<path d="M191.436 120C192.047 120.634 192.573 121.343 193.002 122.112C193.453 122.863 193.804 123.67 194.046 124.512C192.84 123.225 191.947 121.677 191.436 119.988V120Z" fill="#263238"/>
<path d="M195.27 115.98C196.112 116.222 196.919 116.573 197.67 117.024C198.439 117.453 199.149 117.979 199.782 118.59C198.94 118.348 198.133 117.997 197.382 117.546C196.613 117.117 195.904 116.591 195.27 115.98Z" fill="#263238"/>
<path d="M196.596 110.604C198.315 110.204 200.103 110.204 201.822 110.604C200.103 111.004 198.315 111.004 196.596 110.604Z" fill="#263238"/>
<path d="M195.06 105.288C195.695 104.681 196.405 104.157 197.172 103.728C197.922 103.273 198.729 102.92 199.572 102.678C198.285 103.884 196.737 104.777 195.048 105.288H195.06Z" fill="#263238"/>
<path d="M191.07 101.454C191.317 100.614 191.668 99.8074 192.114 99.0539C192.543 98.2853 193.069 97.5754 193.68 96.9419C193.438 97.7839 193.087 98.5907 192.636 99.3419C192.207 100.111 191.681 100.82 191.07 101.454Z" fill="#263238"/>
<path d="M345.522 259.23H162.324L136.308 114.762H319.512L345.522 259.23Z" fill="#3399FE"/>
<path d="M199.794 203.076C203.999 203.076 207.408 199.667 207.408 195.462C207.408 191.257 203.999 187.848 199.794 187.848C195.589 187.848 192.18 191.257 192.18 195.462C192.18 199.667 195.589 203.076 199.794 203.076Z" fill="#263238"/>
<path d="M259.986 203.076C264.191 203.076 267.6 199.667 267.6 195.462C267.6 191.257 264.191 187.848 259.986 187.848C255.781 187.848 252.372 191.257 252.372 195.462C252.372 199.667 255.781 203.076 259.986 203.076Z" fill="#263238"/>
<path d="M240.828 204.294L240.408 203.496C240.372 203.424 236.436 196.152 228.522 196.152C221.322 196.152 219.522 202.998 219.474 203.292L219.258 204.162L217.512 203.742L217.722 202.866C217.722 202.782 219.87 194.352 228.522 194.352C237.522 194.352 241.824 202.32 242.004 202.662L242.424 203.454L240.828 204.294Z" fill="#263238"/>
<path d="M333.426 194.88L333.3 194.28C333.69 194.196 334.074 194.106 334.458 194.004L334.608 194.604C334.2 194.706 333.822 194.796 333.426 194.88Z" fill="#263238"/>
<path d="M336.93 193.914L336.738 193.35C337.488 193.092 338.238 192.81 338.964 192.504L339.198 193.056C338.46 193.368 337.698 193.656 336.93 193.914ZM341.4 192L341.13 191.472C341.832 191.106 342.534 190.71 343.2 190.272L343.512 190.782C342.828 191.256 342.114 191.658 341.4 192ZM345.528 189.462L345.174 188.976C345.822 188.502 346.446 188.004 347.034 187.494L347.43 187.944C346.8 188.49 346.2 189 345.522 189.486L345.528 189.462ZM349.188 186.27L348.75 185.856C349.302 185.256 349.824 184.656 350.304 184.056L350.778 184.422C350.28 185.082 349.746 185.7 349.2 186.294L349.188 186.27ZM352.158 182.43L351.648 182.112C352.063 181.442 352.432 180.744 352.752 180.024L353.304 180.27C352.965 181.021 352.58 181.75 352.152 182.454L352.158 182.43ZM354.144 177.978L353.544 177.81C353.763 177.057 353.926 176.289 354.03 175.512L354.63 175.59C354.531 176.406 354.366 177.212 354.138 178.002L354.144 177.978ZM354.81 173.178H354.21V173.004C354.21 172.278 354.168 171.54 354.096 170.814L354.696 170.754C354.775 171.501 354.815 172.252 354.816 173.004L354.81 173.178ZM353.73 168.48C353.569 167.706 353.368 166.941 353.13 166.188L353.73 166.008C353.976 166.788 354.186 167.58 354.33 168.354L353.73 168.48ZM352.308 163.962C352.02 163.254 351.708 162.528 351.324 161.796L351.864 161.526C352.23 162.27 352.566 163.014 352.86 163.734L352.308 163.962ZM350.208 159.684C349.836 159.03 349.428 158.34 349.008 157.632L349.518 157.314C349.956 158.028 350.37 158.724 350.718 159.39L350.208 159.684ZM347.7 155.61C347.262 154.95 346.818 154.284 346.362 153.618L346.86 153.282C347.316 153.948 347.76 154.614 348.198 155.286L347.7 155.61ZM345 151.638C344.55 150.978 344.094 150.312 343.65 149.652L344.148 149.316C344.592 149.976 345.042 150.642 345.492 151.296L345 151.638ZM342.318 147.642C341.88 146.97 341.454 146.286 341.034 145.602L341.544 145.29C341.964 145.974 342.39 146.646 342.822 147.318L342.318 147.642ZM339.816 143.52C339.408 142.794 339.03 142.074 338.688 141.384L339.228 141.114C339.564 141.798 339.942 142.506 340.338 143.226L339.816 143.52ZM337.686 139.2C337.368 138.45 337.086 137.688 336.822 136.944L337.422 136.752C337.674 137.478 337.956 138.228 338.268 138.966L337.686 139.2ZM336.126 134.622C335.928 133.842 335.754 133.044 335.622 132.222L336.222 132.126C336.354 132.894 336.516 133.674 336.714 134.442L336.126 134.622ZM335.322 129.822C335.262 129.084 335.232 128.34 335.232 127.596V127.398H335.832V127.59C335.832 128.316 335.832 129.048 335.922 129.768L335.322 129.822ZM335.922 125.022L335.322 124.962C335.322 124.8 335.352 124.632 335.37 124.458C335.442 123.816 335.532 123.174 335.64 122.562L336.24 122.664C336.138 123.264 336.048 123.894 335.976 124.524C336 124.71 336 124.872 335.952 125.04L335.922 125.022ZM336.756 120.354L336.156 120.192C336.378 119.4 336.636 118.626 336.924 117.888L337.482 118.104C337.209 118.847 336.977 119.604 336.786 120.372L336.756 120.354ZM366.654 116.856C366.318 116.856 365.97 116.808 365.628 116.76C365.16 116.694 364.692 116.616 364.23 116.526L364.35 115.926C364.794 116.01 365.256 116.088 365.712 116.154C366.036 116.196 366.366 116.226 366.684 116.244L366.654 116.856ZM369.12 116.67L368.994 116.07C369.747 115.914 370.469 115.635 371.13 115.242L371.442 115.752C370.735 116.189 369.961 116.506 369.15 116.688L369.12 116.67ZM338.484 115.956L337.95 115.674C338.332 114.958 338.755 114.265 339.216 113.598L339.708 113.94C339.27 114.593 338.871 115.273 338.514 115.974L338.484 115.956ZM361.884 115.92C361.11 115.674 360.348 115.388 359.604 115.062L359.85 114.51C360.571 114.83 361.311 115.109 362.064 115.344L361.884 115.92ZM373.284 114.048L372.786 113.712C373.213 113.092 373.466 112.369 373.518 111.618L374.118 111.66C374.067 112.521 373.785 113.352 373.302 114.066L373.284 114.048ZM357.444 113.958C356.742 113.55 356.063 113.103 355.41 112.62L355.764 112.14C356.399 112.609 357.06 113.041 357.744 113.436L357.444 113.958ZM341.184 112.086L340.74 111.684C341.283 111.08 341.862 110.509 342.474 109.974L342.87 110.424C342.281 110.951 341.724 111.512 341.202 112.104L341.184 112.086ZM353.538 111.072C352.941 110.521 352.374 109.939 351.84 109.326L352.29 108.93C352.809 109.525 353.36 110.092 353.94 110.628L353.538 111.072ZM373.068 109.446C372.724 108.76 372.249 108.149 371.67 107.646L372.066 107.196C372.704 107.747 373.227 108.418 373.608 109.17L373.068 109.446ZM344.736 108.972L344.394 108.48C345.065 108.022 345.76 107.599 346.476 107.214L346.758 107.742C346.069 108.123 345.4 108.539 344.754 108.99L344.736 108.972ZM350.34 107.412C350.112 107.088 349.89 106.758 349.68 106.416L348.9 106.722L348.672 106.17L349.362 105.894C349.254 105.714 349.146 105.534 349.044 105.354L349.566 105.06C349.686 105.27 349.806 105.48 349.932 105.66C350.268 105.54 350.61 105.426 350.958 105.318L351.132 105.918C350.838 106.008 350.532 106.104 350.256 106.206C350.442 106.5 350.634 106.806 350.856 107.064L350.34 107.412ZM369.738 106.38C369.158 106.091 368.556 105.846 367.938 105.648L367.542 105.522L367.716 104.922L368.124 105.054C368.767 105.259 369.393 105.514 369.996 105.816L369.738 106.38ZM353.43 105.306L353.304 104.706C354.078 104.532 354.882 104.388 355.704 104.274L355.794 104.874C355.002 105 354.216 105.15 353.448 105.324L353.43 105.306ZM365.25 104.982C364.5 104.85 363.708 104.748 362.898 104.676L362.946 104.076C363.78 104.148 364.59 104.25 365.346 104.388L365.25 104.982ZM358.14 104.634L358.098 104.034C358.812 103.992 359.526 103.968 360.234 103.968H360.528V104.568H360.24C359.562 104.586 358.854 104.604 358.158 104.652L358.14 104.634ZM348 103.2C347.676 102.468 347.4 101.706 347.13 100.932L347.73 100.746C347.982 101.502 348.264 102.246 348.576 102.96L348 103.2ZM346.482 98.592C346.302 97.818 346.152 97.014 346.038 96.192L346.638 96.108C346.752 96.9 346.896 97.686 347.07 98.448L346.482 98.592ZM345.81 93.792C345.78 93.252 345.762 92.7 345.762 92.148C345.762 91.89 345.762 91.626 345.762 91.368H346.362C346.362 91.626 346.362 91.878 346.362 92.136C346.362 92.676 346.362 93.222 346.404 93.744L345.81 93.792ZM346.524 88.992L345.924 88.932C346.008 88.14 346.122 87.33 346.26 86.532L346.86 86.634C346.698 87.432 346.584 88.2 346.506 89.004L346.524 88.992ZM347.346 84.306L346.746 84.162C346.938 83.388 347.16 82.608 347.406 81.828L348.006 82.014C347.736 82.8 347.514 83.562 347.328 84.318L347.346 84.306ZM348.786 79.764L348.228 79.548C348.522 78.798 348.828 78.048 349.194 77.322L349.734 77.586C349.374 78.306 349.056 79.038 348.768 79.8L348.786 79.764ZM350.85 75.486L350.328 75.18C350.736 74.49 351.174 73.8 351.63 73.14L352.122 73.482C351.654 74.142 351.228 74.814 350.832 75.498L350.85 75.486ZM353.556 71.58L353.088 71.202C353.592 70.602 354.132 69.966 354.69 69.402L355.122 69.816C354.558 70.38 354.03 70.98 353.538 71.592L353.556 71.58ZM356.82 68.124L356.418 67.68C357.018 67.146 357.618 66.618 358.26 66.108L358.632 66.582C357.99 67.092 357.378 67.614 356.802 68.136L356.82 68.124ZM360.546 65.16L360.204 64.662C360.858 64.212 361.542 63.768 362.238 63.348L362.544 63.858C361.848 64.284 361.2 64.722 360.528 65.172L360.546 65.16ZM364.62 62.682L364.338 62.154C365.046 61.776 365.778 61.416 366.51 61.08L366.762 61.626C366 61.968 365.298 62.328 364.602 62.694L364.62 62.682ZM368.958 60.69L368.736 60.126C369.492 59.832 370.254 59.526 371.01 59.304L371.202 59.904C370.44 60.132 369.684 60.408 368.94 60.702L368.958 60.69Z" fill="#263238"/>
<path d="M373.584 59.1719L373.434 58.5719C374.178 58.3799 374.634 58.2959 374.634 58.2959L374.742 58.8959C374.742 58.8959 374.31 58.9859 373.584 59.1719Z" fill="#263238"/>
<path d="M384.192 55.2958C382.662 50.5558 372.414 52.2598 374.412 58.4578C376.41 64.6558 385.722 60.0418 384.192 55.2958Z" fill="#263238"/>
<path d="M368.838 53.3999C368.916 51.3179 371.808 49.7159 375.9 50.4539C379.992 51.1919 383.838 53.9519 383.838 53.9519C383.838 53.9519 379.8 56.3999 375.666 56.8499C371.532 57.2999 368.76 55.4759 368.838 53.3999Z" fill="#EBEBEB"/>
<path d="M383.838 53.9399C381.714 53.9399 379.596 53.8799 377.478 53.8139C375.36 53.7479 373.236 53.6399 371.118 53.4719C373.242 53.4719 375.366 53.5259 377.484 53.5919C379.602 53.6579 381.726 53.7659 383.838 53.9399Z" fill="#263238"/>
<path d="M372.948 51.5459C374.154 52.1227 375.291 52.8332 376.338 53.6639C375.735 53.3807 375.15 53.0601 374.586 52.7039C374.018 52.3501 373.471 51.9635 372.948 51.5459Z" fill="#263238"/>
<path d="M378.51 53.7419C377.425 54.6216 376.248 55.382 375 56.0099C376.091 55.1292 377.274 54.3688 378.528 53.7419H378.51Z" fill="#263238"/>
<path d="M379.128 52.5718C379.734 52.8625 380.263 53.2897 380.676 53.8198C380.373 53.6769 380.089 53.4976 379.83 53.2858C379.57 53.0753 379.334 52.8358 379.128 52.5718Z" fill="#263238"/>
<path d="M372.738 65.7298C374.016 67.3738 377.298 66.9778 380.184 63.9898C383.07 61.0018 384.6 56.5078 384.6 56.5078C384.6 56.5078 379.872 56.8678 376.266 58.9078C372.66 60.9478 371.454 64.0798 372.738 65.7298Z" fill="#EBEBEB"/>
<path d="M384.6 56.5078C382.872 57.7078 381.192 59.0398 379.506 60.3298C377.82 61.6198 376.17 62.9518 374.556 64.3258C376.284 63.1258 377.964 61.7998 379.644 60.5098C381.324 59.2198 382.962 57.8878 384.6 56.5078Z" fill="#263238"/>
<path d="M377.148 64.8C377.469 64.2172 377.755 63.6162 378.006 63C378.261 62.3821 378.478 61.7489 378.654 61.104C378.332 61.6863 378.046 62.2874 377.796 62.904C377.543 63.5228 377.327 64.1559 377.148 64.8Z" fill="#263238"/>
<path d="M380.4 59.7839C378.996 59.7088 377.588 59.7833 376.2 60.0059C376.899 60.0479 377.601 60.0479 378.3 60.0059C379.004 59.9716 379.705 59.8975 380.4 59.7839Z" fill="#263238"/>
<path d="M381.558 60.3779C381.718 60.0816 381.843 59.7674 381.93 59.4419C382.019 59.1188 382.071 58.7867 382.086 58.4519C381.767 59.0459 381.587 59.7043 381.558 60.3779Z" fill="#263238"/>
<path d="M384.192 55.2959C383.853 55.406 383.489 55.413 383.147 55.3161C382.804 55.2191 382.497 55.0227 382.266 54.7515C382.035 54.4804 381.89 54.1467 381.848 53.7929C381.807 53.439 381.872 53.0808 382.034 52.7637C382.196 52.4466 382.449 52.1847 382.76 52.0114C383.072 51.838 383.427 51.7609 383.782 51.7899C384.137 51.8188 384.476 51.9525 384.755 52.1739C385.034 52.3954 385.241 52.6947 385.35 53.0339C385.496 53.4875 385.455 53.9802 385.238 54.4042C385.021 54.8282 384.645 55.1488 384.192 55.2959Z" fill="#455A64"/>
<path d="M385.296 58.7218C384.957 58.8314 384.594 58.8381 384.251 58.7411C383.909 58.6441 383.603 58.4477 383.372 58.1768C383.141 57.9059 382.996 57.5727 382.954 57.2191C382.913 56.8656 382.977 56.5077 383.139 56.1907C383.301 55.8737 383.553 55.6118 383.864 55.4381C384.174 55.2644 384.529 55.1867 384.884 55.2149C385.239 55.243 385.578 55.3758 385.857 55.5963C386.136 55.8168 386.344 56.1152 386.454 56.4538C386.527 56.6788 386.555 56.9159 386.536 57.1516C386.518 57.3874 386.453 57.6171 386.345 57.8278C386.237 58.0384 386.09 58.2257 385.91 58.3792C385.73 58.5326 385.521 58.649 385.296 58.7218Z" fill="#455A64"/>
<path d="M188.586 57.1921C188.298 59.948 187.251 62.5698 185.56 64.7649C183.869 66.9601 181.602 68.6422 179.01 69.6235C176.419 70.6049 173.606 70.8469 170.885 70.3226C168.165 69.7982 165.643 68.5282 163.602 66.6541L156.12 67.7521L159.864 61.2841C159.008 59.1796 158.643 56.9076 158.796 54.6407C158.949 52.3738 159.617 50.1717 160.749 48.2016C161.881 46.2315 163.447 44.5452 165.328 43.2709C167.209 41.9966 169.356 41.1677 171.605 40.8472C173.854 40.5268 176.147 40.7231 178.309 41.4214C180.471 42.1197 182.446 43.3016 184.083 44.8772C185.72 46.4529 186.976 48.3808 187.756 50.5147C188.537 52.6486 188.82 54.9322 188.586 57.1921Z" fill="white"/>
<path d="M188.586 57.1921C188.305 59.9466 187.266 62.5694 185.586 64.7701C184.765 65.8831 183.775 66.861 182.652 67.6681C181.553 68.5055 180.341 69.1823 179.052 69.6781C177.762 70.1861 176.407 70.5093 175.026 70.6381C174.336 70.7 173.642 70.7141 172.95 70.6801C172.255 70.6623 171.563 70.59 170.88 70.4641C168.123 69.9568 165.561 68.6915 163.482 66.8101L163.656 66.8641L156.186 68.0101L155.64 68.0941L155.916 67.6141L159.636 61.1341V61.3921C158.758 59.2487 158.385 56.9321 158.545 54.6214C158.705 52.3108 159.395 50.0679 160.56 48.0661C161.724 46.0706 163.324 44.3641 165.24 43.0741C167.153 41.8012 169.33 40.9781 171.607 40.6664C173.883 40.3546 176.201 40.5624 178.386 41.2741C180.548 42.0096 182.518 43.2191 184.152 44.8141C185.783 46.4051 187.029 48.3467 187.798 50.4914C188.566 52.6361 188.835 54.9276 188.586 57.1921ZM188.586 57.1921C188.828 54.9388 188.55 52.6599 187.772 50.5314C186.993 48.4028 185.737 46.4816 184.098 44.916C182.459 43.3504 180.483 42.1824 178.321 41.502C176.159 40.8217 173.87 40.6472 171.63 40.9921C169.413 41.3203 167.3 42.1538 165.456 43.4281C163.628 44.7124 162.1 46.3789 160.98 48.3121C159.877 50.2496 159.227 52.4116 159.078 54.6361C158.932 56.8757 159.293 59.1194 160.134 61.2001L160.188 61.3321L160.116 61.4581L156.348 67.9141L156.084 67.5181L163.572 66.4681H163.674L163.746 66.5341C165.748 68.3971 168.228 69.6665 170.91 70.2001C171.578 70.3363 172.257 70.4185 172.938 70.4461C173.619 70.4941 174.303 70.4941 174.984 70.4461C176.35 70.336 177.695 70.0393 178.98 69.5641C180.268 69.095 181.481 68.4401 182.58 67.6201C183.698 66.8195 184.69 65.8546 185.52 64.7581C187.222 62.5681 188.283 59.9491 188.586 57.1921Z" fill="#263238"/>
<path d="M166.404 62.6102C166.393 62.4115 166.422 62.2126 166.491 62.0258C166.559 61.839 166.665 61.6683 166.803 61.5243C166.94 61.3803 167.105 61.266 167.289 61.1885C167.472 61.1111 167.669 61.0722 167.868 61.0742C168.275 61.0742 168.666 61.236 168.954 61.524C169.242 61.8121 169.404 62.2028 169.404 62.6102C169.404 63.0175 169.242 63.4082 168.954 63.6963C168.666 63.9843 168.275 64.1462 167.868 64.1462C167.669 64.1481 167.472 64.1092 167.289 64.0318C167.105 63.9543 166.94 63.84 166.803 63.696C166.665 63.552 166.559 63.3813 166.491 63.1945C166.422 63.0077 166.393 62.8088 166.404 62.6102ZM167.004 59.0642L166.656 47.1602H169.056L168.708 59.0642H167.004Z" fill="#3399FE"/>
<path d="M172.11 62.6102C172.098 62.412 172.128 62.2136 172.196 62.0273C172.264 61.8409 172.37 61.6704 172.506 61.5265C172.643 61.3826 172.808 61.2682 172.99 61.1904C173.173 61.1125 173.37 61.073 173.568 61.0742C173.975 61.0742 174.366 61.236 174.654 61.524C174.942 61.8121 175.104 62.2028 175.104 62.6102C175.104 63.0175 174.942 63.4082 174.654 63.6963C174.366 63.9843 173.975 64.1462 173.568 64.1462C173.37 64.1473 173.173 64.1078 172.99 64.03C172.808 63.9522 172.643 63.8378 172.506 63.6938C172.37 63.5499 172.264 63.3794 172.196 63.1931C172.128 63.0067 172.098 62.8083 172.11 62.6102ZM172.71 59.0642L172.38 47.1602H174.78L174.432 59.0642H172.71Z" fill="#3399FE"/>
<path d="M177.81 62.6102C177.799 62.4115 177.828 62.2126 177.897 62.0258C177.965 61.839 178.071 61.6683 178.209 61.5243C178.346 61.3803 178.511 61.266 178.695 61.1885C178.878 61.1111 179.075 61.0722 179.274 61.0742C179.681 61.0742 180.072 61.236 180.36 61.524C180.648 61.8121 180.81 62.2028 180.81 62.6102C180.81 63.0175 180.648 63.4082 180.36 63.6963C180.072 63.9843 179.681 64.1462 179.274 64.1462C179.075 64.1481 178.878 64.1092 178.695 64.0318C178.511 63.9543 178.346 63.84 178.209 63.696C178.071 63.552 177.965 63.3813 177.897 63.1945C177.828 63.0077 177.799 62.8088 177.81 62.6102ZM178.41 59.0642L178.062 47.1602H180.462L180.12 59.0642H178.41Z" fill="#3399FE"/>
</svg>
