<svg width="18" height="18" viewBox="0 0 18 18" fill="none" xmlns="http://www.w3.org/2000/svg">
<path d="M9 8.76917C8.27813 8.76917 7.66019 8.51217 7.14619 7.99817C6.63206 7.48404 6.375 6.86604 6.375 6.14417C6.375 5.42229 6.63206 4.80435 7.14619 4.29035C7.66019 3.77623 8.27813 3.51917 9 3.51917C9.72188 3.51917 10.3398 3.77623 10.8538 4.29035C11.3679 4.80435 11.625 5.42229 11.625 6.14417C11.625 6.86604 11.3679 7.48404 10.8538 7.99817C10.3398 8.51217 9.72188 8.76917 9 8.76917ZM3.375 14.4808V12.8134C3.375 12.4461 3.47475 12.106 3.67425 11.793C3.87375 11.48 4.14037 11.2394 4.47412 11.0711C5.21537 10.7077 5.96319 10.4352 6.71756 10.2534C7.47194 10.0717 8.23275 9.98079 9 9.98079C9.76725 9.98079 10.5281 10.0717 11.2824 10.2534C12.0368 10.4352 12.7846 10.7077 13.5259 11.0711C13.8596 11.2394 14.1263 11.48 14.3258 11.793C14.5253 12.106 14.625 12.4461 14.625 12.8134V14.4808H3.375ZM4.5 13.3558H13.5V12.8134C13.5 12.6615 13.456 12.5209 13.368 12.3915C13.28 12.2622 13.1606 12.1567 13.0097 12.075C12.3634 11.7567 11.7046 11.5156 11.0331 11.3516C10.3614 11.1877 9.68375 11.1058 9 11.1058C8.31625 11.1058 7.63856 11.1877 6.96694 11.3516C6.29544 11.5156 5.63656 11.7567 4.99031 12.075C4.83944 12.1567 4.72 12.2622 4.632 12.3915C4.544 12.5209 4.5 12.6615 4.5 12.8134V13.3558ZM9 7.64417C9.4125 7.64417 9.76563 7.49729 10.0594 7.20354C10.3531 6.90979 10.5 6.55667 10.5 6.14417C10.5 5.73167 10.3531 5.37854 10.0594 5.08479C9.76563 4.79104 9.4125 4.64417 9 4.64417C8.5875 4.64417 8.23438 4.79104 7.94063 5.08479C7.64688 5.37854 7.5 5.73167 7.5 6.14417C7.5 6.55667 7.64688 6.90979 7.94063 7.20354C8.23438 7.49729 8.5875 7.64417 9 7.64417Z" fill="#E8EAED"/>
</svg>
