<svg width="18" height="18" viewBox="0 0 18 18" fill="none" xmlns="http://www.w3.org/2000/svg">
<path d="M3.375 14.4808V12.8134C3.375 12.4461 3.47475 12.106 3.67425 11.793C3.87375 11.48 4.14037 11.2394 4.47412 11.0711C5.21537 10.7078 5.96319 10.4352 6.71756 10.2534C7.47194 10.0717 8.23275 9.98082 9 9.98082C9.29325 9.98082 9.5865 9.99557 9.87975 10.0251C10.1731 10.0547 10.4664 10.0991 10.7597 10.1582V11.2946C10.4664 11.2255 10.1731 11.1768 9.87975 11.1484C9.5865 11.12 9.29325 11.1058 9 11.1058C8.31625 11.1058 7.63856 11.1878 6.96694 11.3516C6.29544 11.5156 5.63656 11.7568 4.99031 12.075C4.83944 12.1568 4.72 12.2623 4.632 12.3915C4.544 12.5209 4.5 12.6615 4.5 12.8134V13.3558H10.7597V14.4808H3.375ZM9 8.7692C8.27813 8.7692 7.66019 8.5122 7.14619 7.9982C6.63206 7.48407 6.375 6.86607 6.375 6.1442C6.375 5.42232 6.63206 4.80438 7.14619 4.29038C7.66019 3.77626 8.27813 3.5192 9 3.5192C9.72188 3.5192 10.3398 3.77626 10.8538 4.29038C11.3679 4.80438 11.625 5.42232 11.625 6.1442C11.625 6.86607 11.3679 7.48407 10.8538 7.9982C10.3398 8.5122 9.72188 8.7692 9 8.7692ZM9 7.6442C9.4125 7.6442 9.76563 7.49732 10.0594 7.20357C10.3531 6.90982 10.5 6.5567 10.5 6.1442C10.5 5.7317 10.3531 5.37857 10.0594 5.08482C9.76563 4.79107 9.4125 4.6442 9 4.6442C8.5875 4.6442 8.23438 4.79107 7.94063 5.08482C7.64688 5.37857 7.5 5.7317 7.5 6.1442C7.5 6.5567 7.64688 6.90982 7.94063 7.20357C8.23438 7.49732 8.5875 7.6442 9 7.6442ZM13.6875 17.2931V13.9903H12.4039V9.93751H16.197L14.7621 12.7933H16.1754L13.6875 17.2931Z" fill="white"/>
</svg>
